<?xml version="1.0" encoding="UTF-8"?>
<svg width="313pt" height="313pt" version="1.1" viewBox="0 0 313 313" xmlns="http://www.w3.org/2000/svg">
 <g id="surface714">
  <path d="m313 156.48c0 86.438-70.074 156.5-156.5 156.5-86.438 0-156.5-70.062-156.5-156.5 0-86.422 70.062-156.5 156.5-156.5 86.426 0 156.5 70.078 156.5 156.5z" fill="#de5833"/>
  <path d="m289 100.41c-7.2969-17.223-17.723-32.613-30.777-45.652-13.297-13.301-28.691-23.473-45.633-30.766-17.738-7.5664-36.523-11.223-56.086-11.223-19.309 0-38.336 3.9102-56.086 11.223-17.203 7.0391-32.605 17.465-45.641 30.766-13.301 13.301-23.469 28.691-30.781 45.652-7.5586 17.73-11.207 36.512-11.207 56.074s3.9023 38.344 11.207 56.074c7.3125 17.215 17.734 32.617 30.781 45.652 13.305 13.297 28.699 23.469 45.641 30.781 17.75 7.5703 36.523 11.207 56.086 11.207 19.293 0 38.348-3.9023 56.086-11.207 16.941-7.3125 32.336-17.746 45.633-30.781 13.309-13.305 23.48-28.691 30.777-45.652 7.5664-17.73 11.23-36.512 11.23-56.074s-3.6641-38.344-11.23-56.074zm-101.2 185.19c-8.3398-14.09-30.25-53.477-30.25-82.684 0-67.289 45.117-9.6406 45.117-63.379 0-12.789-6.25-57.645-45.375-67.027-9.6602-12.785-32.352-25.055-68.352-20.098 0 0 6 1.832 12.777 5.2148 0 0-13.039 1.8281-13.555 10.699 0 0 25.832-1.3086 40.434 3.3945-33.656 4.4336-50.875 22.164-47.742 54.25 4.4375 45.648 23.75 127.03 30.527 155.46-51.125-18.262-87.91-67.305-87.91-124.95 0-73.297 59.473-133.02 133.03-133.02 73.551 0 133.02 59.469 133.02 133.02-0.26172 62.602-43.555 115.02-101.73 129.11z" fill="#fff"/>
  <path d="m149.2 178.14c0-17.211 23.484-22.703 32.348-22.703 23.996 0 57.898-15.375 66.254-15.125 8.6055 0.26562 14.078 3.6602 14.078 7.5625 0 5.7383-47.992 27.391-66.512 25.559-17.742-1.5625-21.906 0.27734-21.906 7.5664 0 6.2617 12.773 11.996 26.859 11.996 21.129 0 41.73-9.3789 47.996-4.9492 5.4727 3.9141-14.344 18.004-37.039 18.004-22.699 0-62.078-10.695-62.078-27.922z" fill="#fcd30a" fill-rule="evenodd"/>
  <path d="m190.93 105.11c-6.2539-8.0938-17.469-8.3594-21.379 1.0391 5.9883-4.6953 13.301-5.7383 21.379-1.0391z" fill="#2d4f8d"/>
  <path d="m121.29 105.36c-8.6055-5.2227-22.949-5.7383-22.164 10.695 4.1758-10.176 9.9102-11.996 22.164-10.695z" fill="#2d4f8d"/>
  <path d="m185.72 120.5c-4.6992 0-8.6055 3.9102-8.6055 8.6055 0 4.6953 3.9062 8.5977 8.6055 8.5977 4.6953 0 8.6055-3.9023 8.6055-8.5977 0-4.6953-3.9102-8.6055-8.6055-8.6055zm3.1328 8.082c-1.3086 0-2.6172-1.0508-2.6172-2.6133 0-1.2969 1.0469-2.6133 2.6172-2.6133 1.5625 0 2.6094 1.0547 2.6094 2.6133-0.26953 1.3086-1.3125 2.6133-2.6094 2.6133z" fill="#2d4f8d"/>
  <path d="m118.95 125.18c-5.4805 0-9.9141 4.4336-9.9141 9.918 0 5.4766 4.4336 9.9102 9.9141 9.9102 5.4727 0 9.9102-4.4336 9.9102-9.9102 0-5.4844-4.4375-9.918-9.9102-9.918zm3.6523 9.125c-1.5625 0-2.875-1.3008-2.875-2.8633 0-1.5664 1.3125-2.8672 2.875-2.8672 1.5664 0 2.8672 1.3008 2.8672 2.8672 0 1.5625-1.3008 2.8633-2.8672 2.8633z" fill="#2d4f8d"/>
  <path d="m97.293 82.926c-12.52 9.1406-18.25 23.219-16.43 43.039 4.4297 45.652 23.742 127.28 30.52 155.71 2.3438 0.78906 4.6953 1.5703 7.0469 2.3516-4.1797-17.215-24.266-101.2-33.137-165.62-2.3438-17.223 4.4297-27.391 12-35.48z" fill="#d5d7d8"/>
  <path d="m128.34 71.715c1.043 0 1.8242-0.26953 1.8242-0.26953-13.562-6.5078-34.949-6.7852-40.691-6.7852-0.52344 1.0586-1.0469 2.3516-1.0469 3.6602-0.25781 0.26563 25.043-1.3086 39.91 3.3945z" fill="#d5d7d8"/>
  <path d="m103.82 57.621c-4.168-2.8555-7.5625-4.6797-9.6602-5.7383-1.8164 0.26953-3.3828 0.26953-5.207 0.53516 0 0 5.9961 1.8203 12.777 5.2031h-0.51562z" fill="#d5d7d8"/>
  <path d="m208.93 231.07c-4.4297-1.0391-21.641 11.215-28.164 15.91-0.25781-1.3047-0.51172-2.3477-0.78516-2.8711-0.78516-2.6055-17.473-1.0391-21.383 3.1328-10.434-4.957-31.301-14.602-31.559-8.6055-0.78906 7.8281 0 40.422 4.1719 42.773 3.1328 1.8242 20.863-7.8242 29.734-12.777h0.25391c5.4805 1.3047 15.66 0 19.309-2.3477 0.51953-0.25781 0.78516-0.78125 1.0391-1.3008 8.0898 3.1289 25.555 9.3828 29.215 8.0781 4.6953-1.2969 3.6562-40.684-1.832-41.992z" fill="#67bd47"/>
  <path d="m161.2 268.63c-5.4727-1.043-3.6484-6.5234-3.6484-19.305-1.3164 0.77734-2.3516 1.8359-2.3516 2.875 0 12.781-2.0781 18.523 3.6523 19.297 5.4766 1.3047 15.652 0 19.824-2.3398 0.78516-0.52734 1.0508-1.3086 1.3008-2.6172-3.9102 2.3477-13.559 3.3945-18.777 2.0898z" fill="#43a347"/>
 </g>
</svg>
