<?xml version="1.0" encoding="UTF-8"?>
<svg width="489pt" height="489pt" version="1.1" viewBox="0 0 489 489" xmlns="http://www.w3.org/2000/svg">
 <g id="surface708" fill-rule="evenodd">
  <path d="m244.5 489c135.02 0 244.5-109.48 244.5-244.5s-109.48-244.5-244.5-244.5-244.5 109.48-244.5 244.5 109.48 244.5 244.5 244.5z" fill="#0bbd8b"/>
  <path d="m199.8 113.92c0-9.8633 8.0156-17.871 17.895-17.871 67.035 0 121.38 54.234 121.38 121.12 0 9.8633-8.0156 17.867-17.906 17.867s-17.906-8.0039-17.906-17.867c0-47.152-38.297-85.379-85.562-85.379-9.8828 0-17.898-8.0039-17.898-17.875z" fill="#fff"/>
  <path d="m375.05 199.3c9.8828 0 17.906 7.9961 17.906 17.871 0 66.883-54.348 121.11-121.37 121.11-9.8945 0-17.91-7.9961-17.91-17.871 0-9.8633 8.0156-17.863 17.91-17.863 47.242 0 85.543-38.227 85.543-85.371 0-9.8789 8.0156-17.875 17.918-17.875z" fill="#fff"/>
  <path d="m289.49 375.08c0 9.8711-8.0273 17.875-17.91 17.875-67.035 0-121.37-54.234-121.37-121.12 0-9.8672 8.0234-17.859 17.898-17.859 9.9062 0 17.914 7.9922 17.914 17.859 0 47.164 38.309 85.383 85.559 85.383 9.8828 0 17.91 8 17.91 17.867z" fill="#fff"/>
  <path d="m113.96 289.7c-9.8867 0-17.914-7.9961-17.914-17.855 0-66.898 54.344-121.12 121.37-121.12 9.8867 0 17.914 7.9961 17.914 17.871 0 9.8633-8.0273 17.863-17.914 17.863-47.246 0-85.547 38.223-85.547 85.391 0 9.8594-8.0195 17.855-17.91 17.855z" fill="#fff"/>
 </g>
</svg>
