<?xml version="1.0" encoding="UTF-8"?>
<svg width="623pt" height="623pt" version="1.1" viewBox="0 0 623 623" xmlns="http://www.w3.org/2000/svg">
 <g id="surface697">
  <path d="m181.82 188.04 89.773-51.137c-1.6523-4.9414-2.8281-10.125-2.8281-15.785 0-21.672 15.777-39.582 36.527-43.355v-77.754h15.07v77.754c20.75 3.7734 36.523 21.676 36.523 43.355 0 5.6602-1.1719 10.844-3.0586 15.785l90.004 51.137c3.3008-3.7695 7.3008-7.0703 11.781-9.8945 18.848-10.832 42.414-6.1328 55.852 9.8945l67.383-38.879 7.5352 13.195-67.387 38.879c7.3008 19.797-0.46484 42.402-19.324 53.258-4.2344 2.3555-8.4766 4-12.953 4.9375v104.15c4.4766 0.9375 8.7188 2.582 12.953 4.9375 18.859 10.855 26.625 33.461 19.324 53.258l67.387 38.879-7.5352 13.195-67.383-38.879c-13.438 16.023-37.004 20.727-55.852 9.8945-4.4805-2.8242-8.4805-6.125-11.781-9.8945-29.922 16.961-59.852 34.16-90.004 51.137 1.8867 4.9414 3.0586 10.125 3.0586 15.785 0 21.672-15.773 39.582-36.523 43.355v77.754h-15.07v-77.754c-20.75-3.7734-36.527-21.684-36.527-43.355 0-5.6602 1.1758-10.844 2.8281-15.785l-89.773-51.137c-3.293 3.7695-7.3008 7.0703-11.777 9.8945-18.852 10.832-42.418 6.1289-55.852-9.8945l-67.375 38.879-7.543-13.195 67.383-38.879c-7.3008-19.797 0.47266-42.402 19.324-53.258 4.2422-2.3555 8.4766-4 12.953-4.9375v-104.15c-4.4766-0.9375-8.7109-2.582-12.953-4.9375-18.852-10.855-26.625-33.461-19.324-53.258l-67.383-38.879 7.543-13.195 67.375 38.879c13.434-16.027 37-20.727 55.852-9.8945 4.4766 2.8242 8.4844 6.125 11.777 9.8945zm254.47 233.72c-4.2422-11.777-3.5352-25.445 3.3047-36.992 7.0664-12.254 19.07-19.801 32.035-21.672v-103.21c-12.965-1.875-24.969-9.4219-32.035-21.668-6.8398-11.551-7.5469-25.215-3.3047-36.992l-90-51.371c-8.25 9.4219-20.039 15.312-33.457 15.312-13.434 0-25.219-5.8906-33.465-15.312l-90.012 51.371c4.2539 11.777 3.5352 25.441-3.293 36.992-7.0742 12.246-19.09 19.793-32.051 21.668v103.21c12.961 1.8711 24.977 9.418 32.051 21.672 6.8281 11.547 7.5469 25.215 3.293 36.992l90.012 51.367c8.2461-9.4219 20.035-15.316 33.465-15.316 13.418 0 25.199 5.8945 33.457 15.316z"/>
 </g>
</svg>
