<?xml version="1.0" encoding="UTF-8"?>
<svg width="313pt" height="313pt" version="1.1" viewBox="0 0 313 313" xmlns="http://www.w3.org/2000/svg">
 <g id="surface657" fill="#0082c9">
  <path d="m156.74 53.949c-32.449 0-59.953 22.004-68.469 51.805-7.4062-15.816-23.465-26.887-41.945-26.887-25.422 0-46.324 20.902-46.324 46.332 0 25.414 20.902 46.34 46.324 46.34 18.48 0 34.543-11.078 41.945-26.895 8.5156 29.801 36.02 51.809 68.469 51.809 32.195 0 59.555-21.684 68.301-51.148 7.5391 15.453 23.398 26.234 41.621 26.234 25.434 0 46.34-20.914 46.34-46.34 0-25.43-20.906-46.332-46.34-46.332-18.223 0-34.082 10.77-41.621 26.207-8.7461-29.465-36.105-51.129-68.301-51.129zm0 27.195c24.488 0 44.051 19.562 44.051 44.055 0 24.492-19.562 44.055-44.051 44.055-24.496 0-44.059-19.562-44.059-44.055 0-24.492 19.562-44.055 44.059-44.055zm-110.43 24.922c10.742 0 19.148 8.3984 19.148 19.133 0 10.73-8.4062 19.145-19.148 19.145-10.715 0-19.121-8.4141-19.121-19.145 0-10.738 8.4062-19.133 19.121-19.133zm220.36 0c10.727 0 19.141 8.3984 19.141 19.133 0 10.73-8.4141 19.145-19.141 19.145-10.738 0-19.133-8.4141-19.133-19.145 0-10.738 8.3945-19.133 19.133-19.133z"/>
  <path d="m80 229.18c7.6211 0 11.891 5.4219 11.891 13.574 0 0.77344-0.65234 1.4297-1.418 1.4297h-20.562c0.13281 7.2266 5.1641 11.367 10.984 11.367 3.6211 0 6.2109-1.5508 7.5039-2.5859 0.78125-0.51563 1.4219-0.39844 1.8086 0.39453l0.38672 0.64062c0.39062 0.64844 0.26953 1.293-0.38672 1.8086-1.5586 1.1719-4.9102 3.1055-9.4336 3.1055-8.4023 0-14.867-6.0703-14.867-14.871 0.12109-9.3008 6.3398-14.863 14.094-14.863zm7.8789 12.148c-0.25781-5.9375-3.8828-8.918-8.0156-8.918-4.7891 0-8.918 3.1016-9.8203 8.918z"/>
  <path d="m130.71 233.32v-9.9453c0-0.91016 0.51172-1.4297 1.4297-1.4297h1.0234c0.91016 0 1.293 0.51953 1.293 1.4297v6.7227h5.8164c0.91406 0 1.418 0.51953 1.418 1.418v0.38672c0 0.91016-0.50391 1.2891-1.418 1.2891h-5.8164v14.219c0 6.5977 4.0117 7.3828 6.2109 7.5078 1.1641 0.12891 1.5469 0.39062 1.5469 1.418v0.77344c0 0.91016-0.38281 1.293-1.5469 1.293-6.2109 0-9.957-3.7461-9.957-10.473z"/>
  <path d="m160.32 229.18c4.8984 0 8.0156 2.0625 9.4336 3.2305 0.64062 0.50781 0.77734 1.1641 0.12109 1.9414l-0.38281 0.64062c-0.51562 0.78516-1.1562 0.78516-1.9414 0.26172-1.2969-0.90234-3.75-2.582-7.1094-2.582-6.1953 0-11.117 4.6641-11.117 11.512 0 6.7188 4.9219 11.367 11.117 11.367 4.0078 0 6.7227-1.8164 8.0156-2.9844 0.77344-0.50781 1.2969-0.37891 1.8086 0.39844l0.38281 0.51562c0.38672 0.76563 0.26172 1.2969-0.38281 1.9375-1.418 1.1719-4.9062 3.6211-10.09 3.6211-8.3945 0-14.863-6.0742-14.863-14.855 0.13672-8.793 6.5977-15.004 15.008-15.004z"/>
  <path d="m177.5 220c0-0.91016-0.51562-1.418 0.38672-1.418h1.0391c0.89453 0 2.3203 0.50781 2.3203 1.418v30.898c0 3.6094 1.6836 4.0039 2.9766 4.1367 0.64063 0 1.1562 0.38281 1.1562 1.293v0.89844c0 0.90625-0.37891 1.4297-1.4219 1.4297-2.3242 0-6.457-0.78516-6.457-6.9844z"/>
  <path d="m204 229.18c8.2773 0 15 6.332 15 14.738 0 8.5312-6.7227 14.996-15 14.996-8.2695 0-14.992-6.4648-14.992-14.996 0-8.4062 6.7227-14.738 14.992-14.738zm0 26.371c6.0742 0 10.992-4.9141 10.992-11.633 0-6.4648-4.918-11.246-10.992-11.246-6.0742 0-11.113 4.9141-11.113 11.246 0.12891 6.5898 5.0391 11.633 11.113 11.633z"/>
  <path d="m268.52 229.18c6.8477 0 9.2969 5.6836 9.2969 5.6836h0.13281s-0.13281-0.89062-0.13281-2.1914v-12.789c0-0.91406-0.37891-1.4258 0.53125-1.4258h1.0273c0.91016 0 2.3203 0.51172 2.3203 1.4258v36.836c0 0.89453-0.38281 1.4141-1.2891 1.4141h-0.90625c-0.89844 0-1.4141-0.38281-1.4141-1.293v-2.1914c0-1.0352 0.26172-1.8047 0.26172-1.8047h-0.14062s-2.4492 5.9336-9.8164 5.9336c-7.6367 0-12.418-6.0703-12.418-14.859-0.26172-8.7969 5.043-14.738 12.547-14.738zm0.125 26.371c4.7852 0 9.1719-3.3633 9.1719-11.508 0-5.8164-2.9688-11.371-9.0469-11.371-5.043 0-9.1758 4.1328-9.1758 11.371 0.14062 6.9883 3.75 11.508 9.0508 11.508z"/>
  <path d="m32.59 258.27h1.0352c0.90625 0 1.418-0.52344 1.418-1.4297v-27.758c0-4.3945 4.7852-7.5273 10.207-7.5273 5.4414 0 10.219 3.1328 10.219 7.5273v27.758c0 0.90625 0.52734 1.4297 1.418 1.4297h1.043c0.90625 0 1.2891-0.52344 1.2891-1.4297v-27.914c0-7.3828-7.3672-10.992-14.09-10.992-6.4648 0-13.828 3.6094-13.828 10.992v27.914c0 0.90625 0.37891 1.4297 1.2891 1.4297z"/>
  <path d="m248.35 229.82h-1.0352c-0.90234 0-1.418 0.52344-1.418 1.4141v15.648c0 4.3984-2.8516 8.4062-8.4062 8.4062-5.4297 0-8.4062-4.0078-8.4062-8.4062v-15.648c0-0.89062-0.51953-1.4141-1.4219-1.4141h-1.0391c-0.89453 0-1.2852 0.52344-1.2852 1.4141v16.68c0 7.375 5.4297 10.992 12.152 10.992 6.7266 0 12.148-3.6172 12.148-10.992v-16.68c0.12891-0.89062-0.38281-1.4141-1.2891-1.4141z"/>
  <path d="m120.37 229.62c-0.30859 0.046875-0.61719 0.25781-0.89844 0.61719l-5.2344 6.2305-3.9219 4.6602-5.9219-7.0625-3.2148-3.8281c-0.30078-0.35938-0.62109-0.53906-0.96875-0.57422-0.33984-0.027344-0.70312 0.09375-1.0352 0.39062l-0.79688 0.65625c-0.70312 0.59375-0.65625 1.2383-0.074219 1.9219l5.2344 6.2422 4.332 5.1641-6.3477 7.5742c-0.007812 0.015624-0.007812 0.015624-0.007812 0.023437l-3.2109 3.8203c-0.58203 0.6875-0.51953 1.418 0.16797 2l0.79297 0.66797c0.69922 0.58203 1.332 0.43359 1.9141-0.25781l5.2266-6.2383 3.9102-4.6602 5.9336 7.0547s0.007812 0 0.007812 0.019531l3.2148 3.8242c0.57812 0.69141 1.3047 0.74609 2.0039 0.16406l0.79297-0.65234c0.68359-0.58203 0.64453-1.2344 0.074219-1.9219l-5.2344-6.2383-4.3477-5.1719 6.3672-7.5703c0-0.007813 0-0.007813 0.003906-0.023438l3.2109-3.8203c0.57031-0.68359 0.51562-1.418-0.18359-2l-0.79688-0.66016c-0.33594-0.30469-0.66797-0.40625-0.99219-0.35156z"/>
 </g>
</svg>
