<?xml version="1.0" encoding="UTF-8"?>
<svg width="313pt" height="313pt" version="1.1" viewBox="0 0 313 313" xmlns="http://www.w3.org/2000/svg">
 <g id="surface616">
  <path d="m273.88 156.5c0-64.832-52.555-117.38-117.38-117.38-34.277 0-65.117 14.703-86.582 38.129l39.848 39.848c11.207-13.297 27.98-21.734 46.734-21.734 33.77 0 61.133 27.363 61.133 61.133h-26.898l53.797 53.797 53.797-53.797z"/>
  <path d="m313 156.5c0 86.426-70.074 156.5-156.5 156.5-86.438 0-156.5-70.074-156.5-156.5 0-86.438 70.062-156.5 156.5-156.5 86.426 0 156.5 70.062 156.5 156.5z" fill="#4e0b4e"/>
  <path d="m273.88 156.5c0-64.832-52.555-117.38-117.38-117.38-34.277 0-65.117 14.703-86.582 38.129l39.848 39.848c11.207-13.297 27.98-21.734 46.734-21.734 33.77 0 61.133 27.363 61.133 61.133h-26.898l53.797 53.797 53.797-53.797z" fill="#fff"/>
  <path d="m39.125 156.5c0 64.82 52.543 117.38 117.38 117.38 34.273 0 65.117-14.703 86.582-38.129l-39.848-39.848c-11.207 13.293-27.98 21.734-46.734 21.734-33.77 0-61.133-27.363-61.133-61.133h26.898l-53.797-53.797-53.797 53.797z" fill="#fff"/>
 </g>
</svg>
