<?xml version="1.0" encoding="UTF-8"?>
<svg width="979" height="785" fill="none" viewBox="0 0 979 785" xmlns="http://www.w3.org/2000/svg">
 <path d="m0 22.554c0-19.068 22.212-29.5 36.874-17.318l387.8 322.22c37.5 31.159 91.869 31.159 129.37 0l387.8-322.22c14.661-12.182 36.873-1.75 36.873 17.318v661.15c0 55.946-45.33 101.3-101.25 101.3h-776.23c-55.917 0-101.25-45.354-101.25-101.3v-661.15z" fill="#6D4AFF"/>
 <path d="m621.49 271.42 0.054 0.044-195.3 172.61c-33.269 29.404-82.998 30.145-117.13 1.746l-309.12-257.21v-166.05c0-19.068 22.212-29.5 36.874-17.318l387.8 322.22c37.5 31.159 91.869 31.159 129.37 0l67.446-56.04z" clip-rule="evenodd" fill="url(#paint0_linear_6150_150885)" fill-rule="evenodd"/>
 <path d="m770.6 147.53v637.47h106.87c55.917 0 101.25-45.358 101.25-101.3v-661.14c0-19.068-22.213-29.502-36.874-17.318l-171.24 142.29z" clip-rule="evenodd" fill="url(#paint1_linear_6150_150885)" fill-rule="evenodd"/>
 <defs>
  <linearGradient id="paint0_linear_6150_150885" x1="738.26" x2="514.95" y1="384.02" y2="-568.83" gradientUnits="userSpaceOnUse">
   <stop stop-color="#E2DBFF" offset="0"/>
   <stop stop-color="#6D4AFF" offset="1"/>
  </linearGradient>
  <linearGradient id="paint1_linear_6150_150885" x1="1276.8" x2="514.87" y1="1301.4" y2="-325.53" gradientUnits="userSpaceOnUse">
   <stop stop-color="#E2DBFF" offset=".271"/>
   <stop stop-color="#6D4AFF" offset="1"/>
  </linearGradient>
 </defs>
</svg>
