<?xml version="1.0" encoding="UTF-8"?>
<svg width="128px" height="128px" version="1.1" viewBox="0 0 128 128" xmlns="http://www.w3.org/2000/svg">
 <defs>
  <radialGradient id="radial0" cx="0" cy="0" r="1" gradientTransform="matrix(56.396 -90.753 141.92 88.192 38.63 130.49)" gradientUnits="userSpaceOnUse">
   <stop stop-color="#ffd57f" offset="0"/>
   <stop stop-color="#f5c592" offset=".09375"/>
   <stop stop-color="#ebb5a2" offset=".205"/>
   <stop stop-color="#dea4af" offset=".32447"/>
   <stop stop-color="#d296be" offset=".42875"/>
   <stop stop-color="#c386ca" offset=".53375"/>
   <stop stop-color="#b478d8" offset=".64875"/>
   <stop stop-color="#a166e5" offset=".77125"/>
   <stop stop-color="#8b56f2" offset=".89125"/>
   <stop stop-color="#704cff" offset="1"/>
  </radialGradient>
  <linearGradient id="linear0" x1="9.6249" x2="16.626" y1="-7.1482" y2="35.587" gradientTransform="scale(3.5556)" gradientUnits="userSpaceOnUse">
   <stop stop-color="#6c4aff" offset="0"/>
   <stop stop-color="#b29efb" stop-opacity=".97647" offset=".39201"/>
   <stop stop-color="#ffe7db" stop-opacity=".8" offset="1"/>
  </linearGradient>
  <radialGradient id="radial1" cx="0" cy="0" r="1" gradientTransform="matrix(45.362 -72.997 114.15 70.938 29.245 117.48)" gradientUnits="userSpaceOnUse">
   <stop stop-color="#ffd57f" offset="0"/>
   <stop stop-color="#f5c592" offset=".09375"/>
   <stop stop-color="#ebb5a2" offset=".205"/>
   <stop stop-color="#dea4af" offset=".32447"/>
   <stop stop-color="#d296be" offset=".42875"/>
   <stop stop-color="#c386ca" offset=".53375"/>
   <stop stop-color="#b478d8" offset=".64875"/>
   <stop stop-color="#a166e5" offset=".77125"/>
   <stop stop-color="#8b56f2" offset=".89125"/>
   <stop stop-color="#704cff" offset="1"/>
  </radialGradient>
 </defs>
 <g id="surface1">
  <path d="m38.492 16.172c8.9258-8.9297 13.391-13.395 18.539-15.066 4.5312-1.4727 9.4062-1.4727 13.938 0 5.1484 1.6719 9.6133 6.1367 18.539 15.066l22.32 22.32c8.9297 8.9258 13.395 13.391 15.066 18.539 1.4727 4.5312 1.4727 9.4062 0 13.938-1.6719 5.1484-6.1367 9.6133-15.066 18.539l-22.32 22.32c-8.9258 8.9297-13.391 13.395-18.539 15.066-4.5312 1.4727-9.4062 1.4727-13.938 0-5.1484-1.6719-9.6133-6.1367-18.539-15.066l-4.1992-4.7031c-2.5391-2.8477-3.8086-4.2695-4.7148-5.8906-0.80078-1.4336-1.3906-2.9805-1.7461-4.5859-0.40234-1.8125-0.40234-3.7188-0.40234-7.5352v-50.227c0-3.8164 0-5.7227 0.40234-7.5352 0.35547-1.6055 0.94531-3.1523 1.7461-4.5859 0.90625-1.6211 2.1758-3.043 4.7148-5.8906z" fill="url(#radial0)"/>
  <path d="m38.492 16.172c8.9258-8.9297 13.391-13.395 18.539-15.066 4.5312-1.4727 9.4062-1.4727 13.938 0 5.1484 1.6719 9.6133 6.1367 18.539 15.066l22.32 22.32c8.9297 8.9258 13.395 13.391 15.066 18.539 1.4727 4.5312 1.4727 9.4062 0 13.938-1.6719 5.1484-6.1367 9.6133-15.066 18.539l-22.32 22.32c-8.9258 8.9297-13.391 13.395-18.539 15.066-4.5312 1.4727-9.4062 1.4727-13.938 0-5.1484-1.6719-9.6133-6.1367-18.539-15.066l-4.1992-4.7031c-2.5391-2.8477-3.8086-4.2695-4.7148-5.8906-0.80078-1.4336-1.3906-2.9805-1.7461-4.5859-0.40234-1.8125-0.40234-3.7188-0.40234-7.5352v-50.227c0-3.8164 0-5.7227 0.40234-7.5352 0.35547-1.6055 0.94531-3.1523 1.7461-4.5859 0.90625-1.6211 2.1758-3.043 4.7148-5.8906z" fill="url(#linear0)"/>
  <path d="m36.895 17.762c4.4648-4.4648 6.6992-6.6953 9.2734-7.5312 2.2656-0.73828 4.7031-0.73828 6.9648 0 2.5742 0.83594 4.8086 3.0664 9.2734 7.5312l33.48 33.48c4.4648 4.4648 6.6953 6.6992 7.5352 9.2734 0.73438 2.2617 0.73438 4.7031 0 6.9648-0.83984 2.5742-3.0703 4.8086-7.5352 9.2734l-33.48 33.48c-4.4648 4.4648-6.6992 6.6953-9.2734 7.5312-2.2617 0.73828-4.6992 0.73828-6.9648 0-2.5742-0.83594-4.8086-3.0664-9.2734-7.5312l-20.723-20.727c-8.9297-8.9297-13.395-13.395-15.066-18.543-1.4727-4.5273-1.4727-9.4062 0-13.934 1.6719-5.1484 6.1367-9.6133 15.066-18.543z" fill="url(#radial1)"/>
 </g>
</svg>
