<svg width="36" height="36" fill="none" xmlns="http://www.w3.org/2000/svg"><path d="M20.448 16.728c0 .981-.58 1.824-1.41 2.215v1.744a1.035 1.035 0 0 1-2.072 0v-1.744a2.446 2.446 0 1 1 3.482-2.215ZM23.567 23.017ZM24.898 20.93ZM25.496 17.998c0 .083-.002.169-.005.252a6.187 6.187 0 0 1-.056.68c.028-.231.048-.458.053-.689.006-.08.008-.16.008-.243Z" fill="#E6E6E6"/><path d="M21.255 7.255c0 .06-.003.12-.006.18 0 .03-.003.061-.008.092-.003.063-.011.124-.02.188-.008.067-.02.13-.033.194 0 .022-.008.042-.014.058-.01.056-.025.111-.041.167a2.08 2.08 0 0 1-.075.233c-.017.052-.039.102-.058.152a2.545 2.545 0 0 1-.12.25 3.42 3.42 0 0 1-.271.43 3.227 3.227 0 0 1-.388.432c-.056.05-.109.1-.167.144-.169.139-.352.26-.546.363h-.003a13.833 13.833 0 0 0-4.111-1.771 14.113 14.113 0 0 0-7.815.288c.166-.189.34-.374.521-.555l.277-.268c.17-.161.338-.316.516-.463.091-.08.183-.156.274-.233.172-.142.35-.278.527-.408.011-.008.02-.014.028-.022.097-.067.191-.139.285-.202a13.916 13.916 0 0 1 2.637-1.442c.105-.044.213-.086.321-.127.103-.042.208-.078.31-.117l.32-.108c.105-.036.213-.07.316-.103l.319-.091a14.143 14.143 0 0 1 1.624-.35 13.874 13.874 0 0 1 1.977-.163c.058 0 .114-.003.169-.003l.17.003a3.249 3.249 0 0 1 3.085 3.252Z" fill="#fff"/><path d="M21.255 7.255c0 .06-.003.12-.006.18 0 .03-.003.061-.008.092-.003.063-.011.124-.02.188-.008.067-.02.13-.033.194 0 .022-.008.042-.014.058-.01.056-.025.111-.041.167a2.08 2.08 0 0 1-.075.233c-.017.052-.039.102-.058.152a2.545 2.545 0 0 1-.12.25 3.42 3.42 0 0 1-.271.43 3.227 3.227 0 0 1-.388.432c-.056.05-.109.1-.167.144-.169.139-.352.26-.546.363h-.003a13.833 13.833 0 0 0-4.111-1.771 14.113 14.113 0 0 0-7.815.288c.166-.189.34-.374.521-.555l.277-.268c.17-.161.338-.316.516-.463.091-.08.183-.156.274-.233.172-.142.35-.278.527-.408.011-.008.02-.014.028-.022.097-.067.191-.139.285-.202a13.916 13.916 0 0 1 2.637-1.442c.105-.044.213-.086.321-.127.103-.042.208-.078.31-.117l.32-.108c.105-.036.213-.07.316-.103l.319-.091a14.143 14.143 0 0 1 1.624-.35 13.874 13.874 0 0 1 1.977-.163c.058 0 .114-.003.169-.003l.17.003a3.249 3.249 0 0 1 3.085 3.252Z" fill="url(#a)" fill-opacity=".73"/><path d="M32 18v.17a13.885 13.885 0 0 1-.216 2.303c-.078.435-.175.868-.297 1.298-.03.105-.058.213-.091.318-.034.103-.067.211-.103.317-.033.108-.072.213-.108.318-.039.103-.075.208-.116.31-.042.109-.084.217-.128.322a13.665 13.665 0 0 1-1.442 2.636c-.063.095-.133.19-.202.286a.1.1 0 0 0-.02.028c-.132.175-.268.355-.41.527-.077.091-.152.183-.23.274-.15.178-.305.347-.465.516l-.27.277a13.945 13.945 0 0 1-5.494 3.394 13.993 13.993 0 0 0 3.085-13.044l-.002-.009c.005-.08.008-.16.008-.244a3.251 3.251 0 0 1 3.252-3.251 3.248 3.248 0 0 1 3.25 3.085v.17Z" fill="#fff"/><path d="M32 18v.17a13.885 13.885 0 0 1-.216 2.303c-.078.435-.175.868-.297 1.298-.03.105-.058.213-.091.318-.034.103-.067.211-.103.317-.033.108-.072.213-.108.318-.039.103-.075.208-.116.31-.042.109-.084.217-.128.322a13.665 13.665 0 0 1-1.442 2.636c-.063.095-.133.19-.202.286a.1.1 0 0 0-.02.028c-.132.175-.268.355-.41.527-.077.091-.152.183-.23.274-.15.178-.305.347-.465.516l-.27.277a13.945 13.945 0 0 1-5.494 3.394 13.993 13.993 0 0 0 3.085-13.044l-.002-.009c.005-.08.008-.16.008-.244a3.251 3.251 0 0 1 3.252-3.251 3.248 3.248 0 0 1 3.25 3.085v.17Z" fill="url(#b)" fill-opacity=".5"/><path d="M22.405 31.294C17.54 32.898 11.97 31.768 8.1 27.9 2.813 22.613 2.64 14.15 7.58 8.655c.177-.058.358-.114.538-.166a14.043 14.043 0 0 1 8.697.313 13.83 13.83 0 0 1 2.691 1.336 3.24 3.24 0 0 1-.171.086c-.059.022-.117.047-.175.07-.058.021-.12.044-.18.063-.003 0-.006 0-.009.003-.244.075-.499.122-.765.139-.066.002-.133.005-.202.005a7.495 7.495 0 1 0 6.016 11.963c.069-.095.138-.195.208-.294a6.76 6.76 0 0 0 .366-.607 5.7 5.7 0 0 0 .16-.316c.05-.106.1-.211.145-.32a7.541 7.541 0 0 0 .537-2.001c.028-.23.048-.457.053-.688l.003.009c1.217 4.455.188 9.4-3.086 13.044Z" fill="#6D4AFF"/><path d="M22.405 31.294C17.54 32.898 11.97 31.768 8.1 27.9 2.813 22.613 2.64 14.15 7.58 8.655c.177-.058.358-.114.538-.166a14.043 14.043 0 0 1 8.697.313 13.83 13.83 0 0 1 2.691 1.336 3.24 3.24 0 0 1-.171.086c-.059.022-.117.047-.175.07-.058.021-.12.044-.18.063-.003 0-.006 0-.009.003-.244.075-.499.122-.765.139-.066.002-.133.005-.202.005a7.495 7.495 0 1 0 6.016 11.963c.069-.095.138-.195.208-.294a6.76 6.76 0 0 0 .366-.607 5.7 5.7 0 0 0 .16-.316c.05-.106.1-.211.145-.32a7.541 7.541 0 0 0 .537-2.001c.028-.23.048-.457.053-.688l.003.009c1.217 4.455.188 9.4-3.086 13.044Z" fill="url(#c)" fill-opacity=".85"/><path d="M20.448 16.728c0 .981-.58 1.824-1.41 2.215v1.744a1.035 1.035 0 0 1-2.072 0v-1.744a2.446 2.446 0 1 1 3.482-2.215Z" fill="#BE3232"/><path d="M20.448 16.728c0 .981-.58 1.824-1.41 2.215v1.744a1.035 1.035 0 0 1-2.072 0v-1.744a2.446 2.446 0 1 1 3.482-2.215Z" fill="#8F69FF"/><defs><linearGradient id="a" x1="10.3" y1="4.583" x2="22.03" y2="9.617" gradientUnits="userSpaceOnUse"><stop stop-color="#6D4AFF"/><stop offset="1" stop-color="#6D4AFF" stop-opacity=".5"/></linearGradient><linearGradient id="b" x1="19.52" y1="17.76" x2="27.298" y2="33.878" gradientUnits="userSpaceOnUse"><stop offset=".476" stop-color="#6D4AFF"/><stop offset=".731" stop-color="#E6AD32"/><stop offset=".903" stop-color="#F2FB00"/></linearGradient><radialGradient id="c" cx="0" cy="0" r="1" gradientUnits="userSpaceOnUse" gradientTransform="rotate(114.098 5.139 12.069) scale(23.3046 25.2583)"><stop offset=".476" stop-color="#6D4AFF"/><stop offset=".731" stop-color="#E6AD32"/><stop offset=".903" stop-color="#F2FB00"/></radialGradient></defs></svg>