<?xml version="1.0" encoding="UTF-8"?>
<svg xmlns="http://www.w3.org/2000/svg" xmlns:xlink="http://www.w3.org/1999/xlink" width="160pt" height="160pt" viewBox="0 0 160 160" version="1.1">
<g id="surface615">
<path style=" stroke:none;fill-rule:nonzero;fill:rgb(81.568629%,96.470588%,92.941177%);fill-opacity:1;" d="M 79.371094 38.75 L 79.371094 38.753906 C 78.730469 38.757812 78.082031 38.78125 77.441406 38.804688 C 59.132812 39.671875 42.523438 49.789062 33.359375 65.660156 C 30.933594 69.863281 29.140625 74.261719 27.949219 78.734375 C 44.359375 80.476562 59.203125 86.949219 71.089844 96.796875 C 95.371094 112.699219 119.484375 107.050781 133.101562 101.363281 C 136.644531 79.878906 126.859375 57.484375 106.894531 45.957031 C 98.523438 41.125 89.015625 38.636719 79.371094 38.75 Z M 79.371094 38.75 "/>
<path style=" stroke:none;fill-rule:nonzero;fill:rgb(30.19608%,89.803922%,39.215687%);fill-opacity:1;" d="M 77.875 70.238281 C 64.121094 70.25 51.53125 74.746094 45.289062 81.882812 C 53.585938 84.539062 61.25 88.507812 68.046875 93.546875 C 68.046875 93.546875 68.046875 93.539062 68.046875 93.539062 C 79.914062 87.023438 95.410156 82.847656 108.875 80.265625 C 102.191406 74.042969 90.484375 70.257812 77.875 70.25 Z M 77.875 70.238281 "/>
<path style=" stroke:none;fill-rule:nonzero;fill:rgb(2.352941%,76.078433%,23.529412%);fill-opacity:1;" d="M 130.386719 77.101562 C 116.265625 78.535156 87.351562 82.9375 68.054688 93.535156 C 69.183594 94.371094 70.289062 95.234375 71.367188 96.128906 C 95.054688 111.644531 118.574219 106.132812 131.859375 100.582031 C 133.167969 92.675781 132.621094 84.644531 130.390625 77.101562 Z M 130.386719 77.101562 "/>
<path style=" stroke:none;fill-rule:nonzero;fill:rgb(14.509805%,57.647061%,36.862746%);fill-opacity:1;" d="M 109.628906 0.046875 C 107.015625 -0.0195312 104.457031 1.308594 103.050781 3.742188 L 101.710938 6.0625 C 99.667969 9.601562 100.875 14.085938 104.410156 16.128906 L 105.035156 16.488281 L 99.066406 26.828125 C 93.042969 25.070312 86.78125 24.144531 80.46875 24.101562 L 80.464844 24.101562 C 79.25 24.09375 78.03125 24.117188 76.8125 24.171875 C 53.695312 25.265625 32.726562 38.039062 21.164062 58.078125 C 2.390625 90.585938 13.53125 132.152344 46.035156 150.929688 C 78.546875 169.691406 120.113281 158.554688 138.882812 126.046875 C 154.902344 98.296875 149.125 63.945312 126.871094 42.8125 L 132.8125 32.523438 L 133.433594 32.882812 C 136.96875 34.925781 141.453125 33.71875 143.496094 30.1875 L 144.839844 27.859375 C 146.878906 24.328125 145.679688 19.835938 142.144531 17.792969 L 113.121094 1.039062 C 112.015625 0.398438 110.820312 0.078125 109.628906 0.046875 Z M 79.421875 40.804688 C 88.832031 40.699219 98.109375 43.125 106.273438 47.835938 C 125.757812 59.085938 134.046875 79.679688 130.585938 100.632812 C 117.304688 106.1875 95.03125 110.449219 71.34375 94.929688 C 59.746094 85.328125 46.519531 80.265625 30.507812 78.5625 C 31.675781 74.199219 33.421875 69.914062 35.785156 65.8125 C 44.726562 50.328125 59.683594 41.703125 77.539062 40.859375 C 78.167969 40.835938 78.792969 40.816406 79.421875 40.804688 Z M 79.421875 40.804688 "/>
</g>
</svg>
