<?xml version="1.0" encoding="UTF-8"?>
<svg xmlns="http://www.w3.org/2000/svg" xmlns:xlink="http://www.w3.org/1999/xlink" width="313pt" height="313pt" viewBox="0 0 313 313" version="1.1">
<g id="surface725">
<path style=" stroke:none;fill-rule:nonzero;fill:rgb(81.568629%,96.078432%,92.941177%);fill-opacity:1;" d="M 155.273438 75.804688 L 155.273438 75.808594 C 154.015625 75.816406 152.742188 75.863281 151.492188 75.914062 C 115.671875 77.609375 83.183594 97.398438 65.261719 128.449219 C 60.515625 136.667969 57.003906 145.277344 54.675781 154.023438 C 86.777344 157.429688 115.816406 170.097656 139.070312 189.359375 C 186.574219 220.464844 233.742188 209.417969 260.382812 198.289062 C 267.3125 156.261719 248.167969 112.453125 209.113281 89.898438 C 192.738281 80.449219 174.136719 75.578125 155.273438 75.804688 Z M 155.273438 75.804688 "/>
<path style=" stroke:none;fill-rule:nonzero;fill:rgb(30.19608%,89.803922%,39.215687%);fill-opacity:1;" d="M 152.34375 137.402344 C 125.441406 137.425781 100.804688 146.226562 88.59375 160.1875 C 104.824219 165.382812 119.820312 173.148438 133.117188 183.003906 L 133.117188 182.988281 C 156.328125 170.242188 186.644531 162.070312 212.988281 157.019531 C 199.910156 144.851562 177.011719 137.445312 152.34375 137.425781 Z M 152.34375 137.402344 "/>
<path style=" stroke:none;fill-rule:nonzero;fill:rgb(1.960784%,76.078433%,23.529412%);fill-opacity:1;" d="M 255.074219 150.832031 C 227.453125 153.632812 170.886719 162.246094 133.140625 182.984375 C 135.347656 184.617188 137.515625 186.304688 139.621094 188.054688 C 185.960938 218.410156 231.96875 207.625 257.957031 196.769531 C 260.519531 181.300781 259.449219 165.585938 255.085938 150.832031 Z M 255.074219 150.832031 "/>
<path style=" stroke:none;fill-rule:nonzero;fill:rgb(14.509805%,57.647061%,36.862746%);fill-opacity:1;" d="M 214.464844 0.09375 C 209.347656 -0.0390625 204.351562 2.5625 201.597656 7.316406 L 198.976562 11.859375 C 194.980469 18.785156 197.335938 27.554688 204.257812 31.550781 L 205.480469 32.253906 L 193.804688 52.480469 C 182.019531 49.042969 169.761719 47.234375 157.417969 47.144531 L 157.410156 47.144531 C 155.03125 47.136719 152.644531 47.175781 150.265625 47.289062 C 105.046875 49.425781 64.023438 74.410156 41.402344 113.613281 C 4.683594 177.207031 26.46875 258.523438 90.0625 295.25 C 153.660156 331.957031 234.976562 310.167969 271.695312 246.582031 C 303.027344 192.292969 291.726562 125.09375 248.195312 83.75 L 259.8125 63.628906 L 261.03125 64.332031 C 267.949219 68.320312 276.714844 65.964844 280.71875 59.054688 L 283.34375 54.5 C 287.328125 47.589844 284.988281 38.808594 278.070312 34.8125 L 221.296875 2.035156 C 219.128906 0.78125 216.796875 0.152344 214.464844 0.09375 Z M 155.371094 79.824219 C 173.785156 79.621094 191.933594 84.363281 207.902344 93.582031 C 246.019531 115.589844 262.230469 155.875 255.460938 196.867188 C 229.476562 207.730469 185.902344 216.066406 139.570312 185.707031 C 116.882812 166.921875 91.007812 157.019531 59.683594 153.6875 C 61.96875 145.152344 65.382812 136.769531 70.007812 128.746094 C 87.5 98.453125 116.757812 81.582031 151.6875 79.933594 C 152.921875 79.886719 154.144531 79.84375 155.371094 79.824219 Z M 155.371094 79.824219 "/>
</g>
</svg>
