<?xml version="1.0" encoding="UTF-8"?>
<svg xmlns="http://www.w3.org/2000/svg" xmlns:xlink="http://www.w3.org/1999/xlink" width="313pt" height="313pt" viewBox="0 0 313 313" version="1.1">
<g id="surface720">
<path style=" stroke:none;fill-rule:nonzero;fill:rgb(60.392159%,80.000001%,0.392157%);fill-opacity:1;" d="M 313 152.386719 C 281.964844 206.660156 223.5 243.234375 156.5 243.234375 C 89.5 243.234375 31.035156 206.660156 0 152.386719 C 31.035156 98.125 89.5 61.546875 156.5 61.546875 C 223.5 61.546875 281.964844 98.125 313 152.386719 "/>
<path style=" stroke:none;fill-rule:nonzero;fill:rgb(13.725491%,12.156863%,12.54902%);fill-opacity:1;" d="M 253.628906 251.417969 L 226.195312 200.964844 C 235.6875 187.15625 241.246094 170.414062 241.246094 152.390625 C 241.246094 104.957031 202.789062 66.503906 155.351562 66.503906 C 107.910156 66.503906 69.457031 104.957031 69.457031 152.390625 C 69.457031 199.835938 107.910156 238.296875 155.351562 238.296875 C 173.304688 238.296875 189.976562 232.785156 203.761719 223.355469 L 253.621094 251.425781 Z M 253.628906 251.417969 "/>
<path style=" stroke:none;fill-rule:nonzero;fill:rgb(60.392159%,80.000001%,0.392157%);fill-opacity:1;" d="M 198.636719 173.710938 C 198.636719 196.957031 179.730469 215.863281 156.488281 215.863281 C 133.246094 215.863281 114.324219 196.957031 114.324219 173.710938 L 114.324219 121.871094 C 114.324219 118.636719 116.953125 116.015625 120.183594 116.015625 C 123.398438 116.015625 126.023438 118.636719 126.023438 121.871094 L 126.023438 153.246094 C 126.023438 154.941406 127.394531 156.3125 129.101562 156.3125 L 129.304688 156.3125 C 131.011719 156.3125 132.382812 154.941406 132.382812 153.246094 L 132.382812 105.667969 C 132.382812 102.433594 135.003906 99.808594 138.230469 99.808594 C 141.445312 99.808594 144.078125 102.433594 144.078125 105.667969 L 144.078125 150.480469 C 144.078125 152.1875 145.453125 153.5625 147.152344 153.5625 C 148.851562 153.5625 150.230469 152.1875 150.230469 150.480469 L 150.230469 94.785156 C 150.230469 91.558594 152.855469 88.949219 156.070312 88.949219 C 159.308594 88.949219 161.917969 91.558594 161.917969 94.785156 L 161.917969 150.074219 C 161.917969 151.765625 163.292969 153.144531 164.988281 153.144531 C 166.695312 153.144531 168.070312 151.765625 168.070312 150.074219 L 168.070312 104.433594 C 168.070312 101.210938 170.703125 98.585938 173.914062 98.585938 C 177.136719 98.585938 179.761719 101.210938 179.761719 104.433594 L 179.761719 162.851562 C 172.761719 163.5 156.273438 167.054688 149.496094 185.8125 C 148.914062 187.414062 149.742188 189.175781 151.335938 189.757812 C 151.679688 189.882812 152.03125 189.941406 152.371094 189.941406 C 153.632812 189.941406 154.816406 189.167969 155.273438 187.917969 C 162.386719 168.238281 181.871094 168.828125 182.695312 168.875 L 185.914062 169.023438 L 185.914062 136.542969 C 185.914062 133.308594 188.773438 130.683594 192.269531 130.683594 C 195.777344 130.683594 198.636719 133.308594 198.636719 136.542969 Z M 192.273438 124.523438 C 189.957031 124.523438 187.789062 125.152344 185.921875 126.207031 L 185.921875 104.425781 C 185.921875 97.8125 180.539062 92.429688 173.921875 92.429688 C 171.78125 92.429688 169.78125 92.996094 168.035156 93.988281 C 167.621094 87.738281 162.417969 82.789062 156.070312 82.789062 C 149.457031 82.789062 144.078125 88.167969 144.078125 94.785156 L 144.078125 95.179688 C 142.347656 94.21875 140.355469 93.65625 138.234375 93.65625 C 131.613281 93.65625 126.230469 99.035156 126.230469 105.648438 L 126.230469 111.515625 C 124.460938 110.46875 122.402344 109.851562 120.183594 109.851562 C 113.566406 109.851562 108.183594 115.242188 108.183594 121.851562 L 108.183594 173.707031 C 108.183594 200.34375 129.855469 222.003906 156.488281 222.003906 C 183.125 222.003906 204.789062 200.34375 204.789062 173.707031 L 204.789062 136.523438 C 204.789062 129.90625 199.175781 124.523438 192.289062 124.523438 "/>
</g>
</svg>
