<?xml version="1.0" encoding="UTF-8"?>
<svg xmlns="http://www.w3.org/2000/svg" xmlns:xlink="http://www.w3.org/1999/xlink" width="160pt" height="160pt" viewBox="0 0 160 160" version="1.1">
<g id="surface607">
<path style=" stroke:none;fill-rule:nonzero;fill:rgb(60.392159%,80.000001%,0.392157%);fill-opacity:1;" d="M 160 77.898438 C 144.132812 105.640625 114.25 124.335938 80 124.335938 C 45.75 124.335938 15.867188 105.640625 0 77.898438 C 15.867188 50.160156 45.75 31.464844 80 31.464844 C 114.25 31.464844 144.132812 50.160156 160 77.898438 "/>
<path style=" stroke:none;fill-rule:nonzero;fill:rgb(13.725491%,12.156863%,12.54902%);fill-opacity:1;" d="M 129.652344 128.519531 L 115.628906 102.730469 C 120.484375 95.667969 123.320312 87.113281 123.320312 77.898438 C 123.320312 53.652344 103.664062 33.992188 79.414062 33.992188 C 55.164062 33.992188 35.507812 53.652344 35.507812 77.898438 C 35.507812 102.152344 55.164062 121.8125 79.414062 121.8125 C 88.59375 121.8125 97.113281 118.992188 104.160156 114.175781 L 129.648438 128.523438 Z M 129.652344 128.519531 "/>
<path style=" stroke:none;fill-rule:nonzero;fill:rgb(60.392159%,80.000001%,0.392157%);fill-opacity:1;" d="M 101.542969 88.796875 C 101.542969 100.679688 91.878906 110.34375 79.996094 110.34375 C 68.117188 110.34375 58.445312 100.679688 58.445312 88.796875 L 58.445312 62.296875 C 58.445312 60.644531 59.789062 59.304688 61.4375 59.304688 C 63.085938 59.304688 64.421875 60.644531 64.421875 62.296875 L 64.421875 78.335938 C 64.421875 79.203125 65.125 79.90625 65.996094 79.90625 C 66.015625 79.90625 66.03125 79.90625 66.050781 79.90625 C 66.070312 79.90625 66.085938 79.90625 66.101562 79.90625 C 66.972656 79.90625 67.675781 79.203125 67.675781 78.335938 L 67.675781 54.015625 C 67.675781 52.363281 69.015625 51.019531 70.664062 51.019531 C 72.308594 51.019531 73.652344 52.363281 73.652344 54.015625 L 73.652344 76.921875 C 73.652344 77.792969 74.355469 78.496094 75.226562 78.496094 C 76.09375 78.496094 76.796875 77.792969 76.796875 76.921875 L 76.796875 48.453125 C 76.796875 46.804688 78.140625 45.46875 79.785156 45.46875 C 81.4375 45.46875 82.773438 46.804688 82.773438 48.453125 L 82.773438 76.714844 C 82.773438 77.582031 83.476562 78.285156 84.34375 78.285156 C 85.214844 78.285156 85.917969 77.582031 85.917969 76.714844 L 85.917969 53.382812 C 85.917969 51.738281 87.261719 50.394531 88.90625 50.394531 C 90.554688 50.394531 91.894531 51.738281 91.894531 53.382812 L 91.894531 83.246094 C 88.316406 83.578125 79.886719 85.394531 76.421875 94.984375 C 76.125 95.804688 76.546875 96.703125 77.363281 97 C 77.539062 97.066406 77.71875 97.09375 77.894531 97.09375 C 78.539062 97.09375 79.144531 96.699219 79.375 96.058594 C 83.011719 86 92.972656 86.304688 93.394531 86.324219 L 95.039062 86.402344 L 95.039062 69.796875 C 95.039062 68.144531 96.5 66.804688 98.289062 66.804688 C 100.082031 66.804688 101.542969 68.144531 101.542969 69.796875 Z M 98.289062 63.65625 C 97.105469 63.65625 95.996094 63.976562 95.042969 64.515625 L 95.042969 53.382812 C 95.042969 50 92.289062 47.246094 88.910156 47.246094 C 87.816406 47.246094 86.792969 47.539062 85.898438 48.042969 C 85.6875 44.851562 83.027344 42.320312 79.785156 42.320312 C 76.402344 42.320312 73.652344 45.070312 73.652344 48.453125 L 73.652344 48.65625 C 72.769531 48.164062 71.75 47.875 70.664062 47.875 C 67.28125 47.875 64.53125 50.625 64.53125 54.007812 L 64.53125 57.007812 C 63.625 56.46875 62.570312 56.15625 61.4375 56.15625 C 58.054688 56.15625 55.304688 58.910156 55.304688 62.289062 L 55.304688 88.792969 C 55.304688 102.414062 66.382812 113.484375 79.996094 113.484375 C 93.613281 113.484375 104.6875 102.414062 104.6875 88.792969 L 104.6875 69.789062 C 104.6875 66.40625 101.820312 63.65625 98.296875 63.65625 "/>
</g>
</svg>
