<?xml version="1.0" encoding="UTF-8"?>
<svg xmlns="http://www.w3.org/2000/svg" xmlns:xlink="http://www.w3.org/1999/xlink" width="160pt" height="160pt" viewBox="0 0 160 160" version="1.1">
<g id="surface592">
<path style=" stroke:none;fill-rule:nonzero;fill:rgb(87.058824%,34.509805%,20%);fill-opacity:1;" d="M 160.003906 79.992188 C 160.003906 124.175781 124.183594 159.992188 80.003906 159.992188 C 35.820312 159.992188 0.00390625 124.175781 0.00390625 79.992188 C 0.00390625 35.8125 35.820312 -0.0078125 80.003906 -0.0078125 C 124.183594 -0.0078125 160.003906 35.8125 160.003906 79.992188 Z M 160.003906 79.992188 "/>
<path style=" stroke:none;fill-rule:nonzero;fill:rgb(100%,100%,100%);fill-opacity:1;" d="M 147.734375 51.324219 C 144.003906 42.523438 138.671875 34.65625 132 27.992188 C 125.203125 21.191406 117.335938 15.992188 108.671875 12.261719 C 99.605469 8.394531 90.003906 6.523438 80.003906 6.523438 C 70.136719 6.523438 60.40625 8.523438 51.335938 12.261719 C 42.539062 15.859375 34.667969 21.191406 28.003906 27.992188 C 21.203125 34.789062 16.007812 42.65625 12.269531 51.324219 C 8.402344 60.390625 6.539062 69.992188 6.539062 79.992188 C 6.539062 89.992188 8.535156 99.589844 12.269531 108.65625 C 16.007812 117.457031 21.335938 125.328125 28.003906 131.992188 C 34.804688 138.789062 42.671875 143.988281 51.335938 147.726562 C 60.40625 151.59375 70.003906 153.457031 80.003906 153.457031 C 89.867188 153.457031 99.605469 151.460938 108.671875 147.726562 C 117.335938 143.988281 125.203125 138.65625 132 131.992188 C 138.804688 125.191406 144.003906 117.324219 147.734375 108.65625 C 151.601562 99.589844 153.472656 89.992188 153.472656 79.992188 C 153.472656 69.992188 151.601562 60.390625 147.734375 51.324219 Z M 96 145.992188 C 91.738281 138.789062 80.539062 118.65625 80.539062 103.726562 C 80.539062 69.328125 103.601562 98.792969 103.601562 71.324219 C 103.601562 64.789062 100.40625 41.859375 80.40625 37.0625 C 75.46875 30.527344 63.871094 24.257812 45.46875 26.792969 C 45.46875 26.792969 48.535156 27.726562 52 29.457031 C 52 29.457031 45.335938 30.390625 45.070312 34.925781 C 45.070312 34.925781 58.273438 34.257812 65.738281 36.660156 C 48.535156 38.925781 39.734375 47.992188 41.335938 64.390625 C 43.601562 87.726562 53.472656 129.328125 56.9375 143.859375 C 30.804688 134.527344 12 109.457031 12 79.992188 C 12 42.523438 42.402344 11.992188 80.003906 11.992188 C 117.601562 11.992188 148.003906 42.390625 148.003906 79.992188 C 147.871094 111.992188 125.738281 138.789062 96 145.992188 Z M 96 145.992188 "/>
<path style=" stroke:none;fill-rule:evenodd;fill:rgb(99.607843%,82.745099%,3.921569%);fill-opacity:1;" d="M 76.269531 91.058594 C 76.269531 82.261719 88.273438 79.457031 92.804688 79.457031 C 105.070312 79.457031 122.402344 71.59375 126.671875 71.722656 C 131.070312 71.859375 133.867188 73.59375 133.867188 75.589844 C 133.867188 78.523438 109.335938 89.589844 99.867188 88.65625 C 90.800781 87.855469 88.671875 88.792969 88.671875 92.523438 C 88.671875 95.722656 95.203125 98.65625 102.402344 98.65625 C 113.203125 98.65625 123.734375 93.859375 126.9375 96.125 C 129.734375 98.125 119.605469 105.328125 108.003906 105.328125 C 96.402344 105.328125 76.269531 99.859375 76.269531 91.058594 Z M 76.269531 91.058594 "/>
<path style=" stroke:none;fill-rule:nonzero;fill:rgb(17.647059%,30.980393%,55.29412%);fill-opacity:1;" d="M 97.601562 53.726562 C 94.40625 49.589844 88.671875 49.457031 86.671875 54.257812 C 89.734375 51.859375 93.472656 51.324219 97.601562 53.726562 Z M 97.601562 53.726562 "/>
<path style=" stroke:none;fill-rule:nonzero;fill:rgb(17.647059%,30.980393%,55.29412%);fill-opacity:1;" d="M 62 53.859375 C 57.601562 51.191406 50.269531 50.929688 50.667969 59.328125 C 52.804688 54.125 55.738281 53.195312 62 53.859375 Z M 62 53.859375 "/>
<path style=" stroke:none;fill-rule:nonzero;fill:rgb(17.647059%,30.980393%,55.29412%);fill-opacity:1;" d="M 94.9375 61.59375 C 92.535156 61.59375 90.539062 63.59375 90.539062 65.992188 C 90.539062 68.394531 92.535156 70.390625 94.9375 70.390625 C 97.335938 70.390625 99.335938 68.394531 99.335938 65.992188 C 99.335938 63.59375 97.335938 61.59375 94.9375 61.59375 Z M 96.539062 65.726562 C 95.867188 65.726562 95.203125 65.191406 95.203125 64.390625 C 95.203125 63.726562 95.738281 63.054688 96.539062 63.054688 C 97.335938 63.054688 97.871094 63.59375 97.871094 64.390625 C 97.734375 65.058594 97.203125 65.726562 96.539062 65.726562 Z M 96.539062 65.726562 "/>
<path style=" stroke:none;fill-rule:nonzero;fill:rgb(17.647059%,30.980393%,55.29412%);fill-opacity:1;" d="M 60.804688 63.992188 C 58.003906 63.992188 55.738281 66.257812 55.738281 69.058594 C 55.738281 71.859375 58.003906 74.125 60.804688 74.125 C 63.601562 74.125 65.867188 71.859375 65.867188 69.058594 C 65.867188 66.257812 63.601562 63.992188 60.804688 63.992188 Z M 62.671875 68.65625 C 61.871094 68.65625 61.203125 67.992188 61.203125 67.191406 C 61.203125 66.390625 61.871094 65.726562 62.671875 65.726562 C 63.472656 65.726562 64.136719 66.390625 64.136719 67.191406 C 64.136719 67.992188 63.472656 68.65625 62.671875 68.65625 Z M 62.671875 68.65625 "/>
<path style=" stroke:none;fill-rule:nonzero;fill:rgb(83.529413%,84.313726%,84.705883%);fill-opacity:1;" d="M 49.734375 42.390625 C 43.335938 47.0625 40.40625 54.257812 41.335938 64.390625 C 43.601562 87.726562 53.472656 129.457031 56.9375 143.988281 C 58.132812 144.390625 59.335938 144.789062 60.539062 145.191406 C 58.402344 136.390625 48.132812 93.457031 43.601562 60.527344 C 42.402344 51.722656 45.867188 46.523438 49.734375 42.390625 Z M 49.734375 42.390625 "/>
<path style=" stroke:none;fill-rule:nonzero;fill:rgb(83.529413%,84.313726%,84.705883%);fill-opacity:1;" d="M 65.605469 36.660156 C 66.136719 36.660156 66.539062 36.523438 66.539062 36.523438 C 59.605469 33.195312 48.671875 33.054688 45.738281 33.054688 C 45.46875 33.59375 45.203125 34.257812 45.203125 34.925781 C 45.070312 35.058594 58.003906 34.257812 65.605469 36.660156 Z M 65.605469 36.660156 "/>
<path style=" stroke:none;fill-rule:nonzero;fill:rgb(83.529413%,84.313726%,84.705883%);fill-opacity:1;" d="M 53.070312 29.457031 C 50.9375 27.992188 49.203125 27.0625 48.132812 26.523438 C 47.203125 26.660156 46.402344 26.660156 45.46875 26.792969 C 45.46875 26.792969 48.535156 27.726562 52 29.457031 L 51.738281 29.457031 Z M 53.070312 29.457031 "/>
<path style=" stroke:none;fill-rule:nonzero;fill:rgb(40.392157%,74.117649%,27.843139%);fill-opacity:1;" d="M 106.800781 118.125 C 104.535156 117.59375 95.738281 123.859375 92.402344 126.257812 C 92.269531 125.589844 92.140625 125.058594 92 124.789062 C 91.601562 123.457031 83.070312 124.257812 81.070312 126.390625 C 75.738281 123.859375 65.070312 118.925781 64.9375 121.992188 C 64.535156 125.992188 64.9375 142.65625 67.070312 143.859375 C 68.671875 144.789062 77.734375 139.859375 82.269531 137.324219 L 82.402344 137.324219 C 85.203125 137.992188 90.40625 137.324219 92.269531 136.125 C 92.535156 135.992188 92.671875 135.722656 92.804688 135.460938 C 96.9375 137.0625 105.867188 140.257812 107.734375 139.589844 C 110.136719 138.925781 109.605469 118.792969 106.800781 118.125 Z M 106.800781 118.125 "/>
<path style=" stroke:none;fill-rule:nonzero;fill:rgb(26.274511%,63.921571%,27.843139%);fill-opacity:1;" d="M 82.402344 137.324219 C 79.605469 136.792969 80.539062 133.988281 80.539062 127.457031 C 79.867188 127.855469 79.335938 128.394531 79.335938 128.925781 C 79.335938 135.460938 78.273438 138.394531 81.203125 138.789062 C 84.003906 139.457031 89.203125 138.789062 91.335938 137.59375 C 91.738281 137.324219 91.871094 136.921875 92 136.257812 C 90.003906 137.457031 85.070312 137.992188 82.402344 137.324219 Z M 82.402344 137.324219 "/>
</g>
</svg>
