<?xml version="1.0" encoding="UTF-8"?>
<svg xmlns="http://www.w3.org/2000/svg" xmlns:xlink="http://www.w3.org/1999/xlink" width="313pt" height="313pt" viewBox="0 0 313 313" version="1.1">
<g id="surface714">
<path style=" stroke:none;fill-rule:nonzero;fill:rgb(87.058824%,34.509805%,20%);fill-opacity:1;" d="M 313 156.480469 C 313 242.917969 242.925781 312.980469 156.5 312.980469 C 70.0625 312.980469 0 242.917969 0 156.480469 C 0 70.058594 70.0625 -0.0195312 156.5 -0.0195312 C 242.925781 -0.0195312 313 70.058594 313 156.480469 Z M 313 156.480469 "/>
<path style=" stroke:none;fill-rule:nonzero;fill:rgb(100%,100%,100%);fill-opacity:1;" d="M 288.996094 100.40625 C 281.699219 83.183594 271.273438 67.792969 258.21875 54.753906 C 244.921875 41.453125 229.527344 31.28125 212.585938 23.988281 C 194.847656 16.421875 176.0625 12.765625 156.5 12.765625 C 137.191406 12.765625 118.164062 16.675781 100.414062 23.988281 C 83.210938 31.027344 67.808594 41.453125 54.773438 54.753906 C 41.472656 68.054688 31.304688 83.445312 23.992188 100.40625 C 16.433594 118.136719 12.785156 136.917969 12.785156 156.480469 C 12.785156 176.042969 16.6875 194.824219 23.992188 212.554688 C 31.304688 229.769531 41.726562 245.171875 54.773438 258.207031 C 68.078125 271.503906 83.472656 281.675781 100.414062 288.988281 C 118.164062 296.558594 136.9375 300.195312 156.5 300.195312 C 175.792969 300.195312 194.847656 296.292969 212.585938 288.988281 C 229.527344 281.675781 244.921875 271.242188 258.21875 258.207031 C 271.527344 244.902344 281.699219 229.515625 288.996094 212.554688 C 296.5625 194.824219 300.226562 176.042969 300.226562 156.480469 C 300.226562 136.917969 296.5625 118.136719 288.996094 100.40625 Z M 187.796875 285.59375 C 179.457031 271.503906 157.546875 232.117188 157.546875 202.910156 C 157.546875 135.621094 202.664062 193.269531 202.664062 139.53125 C 202.664062 126.742188 196.414062 81.886719 157.289062 72.503906 C 147.628906 59.71875 124.9375 47.449219 88.9375 52.40625 C 88.9375 52.40625 94.9375 54.238281 101.714844 57.621094 C 101.714844 57.621094 88.675781 59.449219 88.160156 68.320312 C 88.160156 68.320312 113.992188 67.011719 128.59375 71.714844 C 94.9375 76.148438 77.71875 93.878906 80.851562 125.964844 C 85.289062 171.613281 104.601562 252.996094 111.378906 281.425781 C 60.253906 263.164062 23.46875 214.121094 23.46875 156.480469 C 23.46875 83.183594 82.941406 23.457031 156.5 23.457031 C 230.050781 23.457031 289.523438 82.925781 289.523438 156.480469 C 289.261719 219.082031 245.96875 271.503906 187.796875 285.59375 Z M 187.796875 285.59375 "/>
<path style=" stroke:none;fill-rule:evenodd;fill:rgb(99.215686%,82.745099%,3.921569%);fill-opacity:1;" d="M 149.203125 178.136719 C 149.203125 160.925781 172.6875 155.433594 181.550781 155.433594 C 205.546875 155.433594 239.449219 140.058594 247.804688 140.308594 C 256.410156 140.574219 261.882812 143.96875 261.882812 147.871094 C 261.882812 153.609375 213.890625 175.261719 195.371094 173.429688 C 177.628906 171.867188 173.464844 173.707031 173.464844 180.996094 C 173.464844 187.257812 186.238281 192.992188 200.324219 192.992188 C 221.453125 192.992188 242.054688 183.613281 248.320312 188.042969 C 253.792969 191.957031 233.976562 206.046875 211.28125 206.046875 C 188.582031 206.046875 149.203125 195.351562 149.203125 178.125 Z M 149.203125 178.136719 "/>
<path style=" stroke:none;fill-rule:nonzero;fill:rgb(17.647059%,30.980393%,55.29412%);fill-opacity:1;" d="M 190.933594 105.105469 C 184.679688 97.011719 173.464844 96.746094 169.554688 106.144531 C 175.542969 101.449219 182.855469 100.40625 190.933594 105.105469 Z M 190.933594 105.105469 "/>
<path style=" stroke:none;fill-rule:nonzero;fill:rgb(17.647059%,30.980393%,55.29412%);fill-opacity:1;" d="M 121.289062 105.363281 C 112.683594 100.140625 98.339844 99.625 99.125 116.058594 C 103.300781 105.882812 109.035156 104.0625 121.289062 105.363281 Z M 121.289062 105.363281 "/>
<path style=" stroke:none;fill-rule:nonzero;fill:rgb(17.647059%,30.980393%,55.29412%);fill-opacity:1;" d="M 185.722656 120.496094 C 181.023438 120.496094 177.117188 124.40625 177.117188 129.101562 C 177.117188 133.796875 181.023438 137.699219 185.722656 137.699219 C 190.417969 137.699219 194.328125 133.796875 194.328125 129.101562 C 194.328125 124.40625 190.417969 120.496094 185.722656 120.496094 Z M 188.855469 128.578125 C 187.546875 128.578125 186.238281 127.527344 186.238281 125.964844 C 186.238281 124.667969 187.285156 123.351562 188.855469 123.351562 C 190.417969 123.351562 191.464844 124.40625 191.464844 125.964844 C 191.195312 127.273438 190.152344 128.578125 188.855469 128.578125 Z M 188.855469 128.578125 "/>
<path style=" stroke:none;fill-rule:nonzero;fill:rgb(17.647059%,30.980393%,55.29412%);fill-opacity:1;" d="M 118.949219 125.179688 C 113.46875 125.179688 109.035156 129.613281 109.035156 135.097656 C 109.035156 140.574219 113.46875 145.007812 118.949219 145.007812 C 124.421875 145.007812 128.859375 140.574219 128.859375 135.097656 C 128.859375 129.613281 124.421875 125.179688 118.949219 125.179688 Z M 122.601562 134.304688 C 121.039062 134.304688 119.726562 133.003906 119.726562 131.441406 C 119.726562 129.875 121.039062 128.574219 122.601562 128.574219 C 124.167969 128.574219 125.46875 129.875 125.46875 131.441406 C 125.46875 133.003906 124.167969 134.304688 122.601562 134.304688 Z M 122.601562 134.304688 "/>
<path style=" stroke:none;fill-rule:nonzero;fill:rgb(83.529413%,84.313726%,84.705883%);fill-opacity:1;" d="M 97.292969 82.925781 C 84.773438 92.066406 79.042969 106.144531 80.863281 125.964844 C 85.292969 171.617188 104.605469 253.246094 111.382812 281.675781 C 113.726562 282.464844 116.078125 283.246094 118.429688 284.027344 C 114.25 266.8125 94.164062 182.832031 85.292969 118.40625 C 82.949219 101.183594 89.722656 91.015625 97.292969 82.925781 Z M 97.292969 82.925781 "/>
<path style=" stroke:none;fill-rule:nonzero;fill:rgb(83.529413%,84.313726%,84.705883%);fill-opacity:1;" d="M 128.339844 71.714844 C 129.382812 71.714844 130.164062 71.445312 130.164062 71.445312 C 116.601562 64.9375 95.214844 64.660156 89.472656 64.660156 C 88.949219 65.71875 88.425781 67.011719 88.425781 68.320312 C 88.167969 68.585938 113.46875 67.011719 128.335938 71.714844 Z M 128.339844 71.714844 "/>
<path style=" stroke:none;fill-rule:nonzero;fill:rgb(83.529413%,84.313726%,84.705883%);fill-opacity:1;" d="M 103.816406 57.621094 C 99.648438 54.765625 96.253906 52.941406 94.15625 51.882812 C 92.339844 52.152344 90.773438 52.152344 88.949219 52.417969 C 88.949219 52.417969 94.945312 54.238281 101.726562 57.621094 L 101.210938 57.621094 Z M 103.816406 57.621094 "/>
<path style=" stroke:none;fill-rule:nonzero;fill:rgb(40.392157%,74.117649%,27.843139%);fill-opacity:1;" d="M 208.925781 231.070312 C 204.496094 230.03125 187.285156 242.285156 180.761719 246.980469 C 180.503906 245.675781 180.25 244.632812 179.976562 244.109375 C 179.191406 241.503906 162.503906 243.070312 158.59375 247.242188 C 148.160156 242.285156 127.292969 232.640625 127.035156 238.636719 C 126.246094 246.464844 127.035156 279.058594 131.207031 281.410156 C 134.339844 283.234375 152.070312 273.585938 160.941406 268.632812 L 161.195312 268.632812 C 166.675781 269.9375 176.855469 268.632812 180.503906 266.285156 C 181.023438 266.027344 181.289062 265.503906 181.542969 264.984375 C 189.632812 268.113281 207.097656 274.367188 210.757812 273.0625 C 215.453125 271.765625 214.414062 232.378906 208.925781 231.070312 Z M 208.925781 231.070312 "/>
<path style=" stroke:none;fill-rule:nonzero;fill:rgb(26.274511%,63.921571%,27.843139%);fill-opacity:1;" d="M 161.199219 268.632812 C 155.726562 267.589844 157.550781 262.109375 157.550781 249.328125 C 156.234375 250.105469 155.199219 251.164062 155.199219 252.203125 C 155.199219 264.984375 153.121094 270.726562 158.851562 271.5 C 164.328125 272.804688 174.503906 271.5 178.675781 269.160156 C 179.460938 268.632812 179.726562 267.851562 179.976562 266.542969 C 176.066406 268.890625 166.417969 269.9375 161.199219 268.632812 Z M 161.199219 268.632812 "/>
</g>
</svg>
