<?xml version="1.0" encoding="UTF-8"?>
<svg xmlns="http://www.w3.org/2000/svg" xmlns:xlink="http://www.w3.org/1999/xlink" width="250pt" height="250pt" viewBox="0 0 250 250" version="1.1">
<g id="surface597">
<path style=" stroke:none;fill-rule:evenodd;fill:rgb(5.098039%,74.117649%,54.509807%);fill-opacity:1;" d="M 125 250 C 194.03125 250 250 194.03125 250 125 C 250 55.96875 194.03125 0 125 0 C 55.96875 0 0 55.96875 0 125 C 0 194.03125 55.96875 250 125 250 Z M 125 250 "/>
<path style=" stroke:none;fill-rule:evenodd;fill:rgb(100%,100%,100%);fill-opacity:1;" d="M 102.148438 58.242188 C 102.148438 53.199219 106.246094 49.105469 111.296875 49.105469 C 145.570312 49.105469 173.351562 76.832031 173.351562 111.03125 C 173.351562 116.074219 169.253906 120.164062 164.195312 120.164062 C 159.140625 120.164062 155.039062 116.074219 155.039062 111.03125 C 155.039062 86.921875 135.460938 67.378906 111.296875 67.378906 C 106.246094 67.378906 102.148438 63.289062 102.148438 58.242188 Z M 102.148438 58.242188 "/>
<path style=" stroke:none;fill-rule:evenodd;fill:rgb(100%,100%,100%);fill-opacity:1;" d="M 191.738281 101.894531 C 196.792969 101.894531 200.894531 105.980469 200.894531 111.03125 C 200.894531 145.226562 173.109375 172.949219 138.84375 172.949219 C 133.789062 172.949219 129.6875 168.859375 129.6875 163.8125 C 129.6875 158.769531 133.789062 154.679688 138.84375 154.679688 C 163 154.679688 182.582031 135.136719 182.582031 111.03125 C 182.582031 105.980469 186.679688 101.894531 191.738281 101.894531 Z M 191.738281 101.894531 "/>
<path style=" stroke:none;fill-rule:evenodd;fill:rgb(100%,100%,100%);fill-opacity:1;" d="M 148 191.757812 C 148 196.800781 143.898438 200.894531 138.84375 200.894531 C 104.574219 200.894531 76.792969 173.167969 76.792969 138.96875 C 76.792969 133.925781 80.894531 129.835938 85.945312 129.835938 C 91.007812 129.835938 95.101562 133.925781 95.101562 138.96875 C 95.101562 163.082031 114.6875 182.621094 138.84375 182.621094 C 143.898438 182.621094 148 186.710938 148 191.757812 Z M 148 191.757812 "/>
<path style=" stroke:none;fill-rule:evenodd;fill:rgb(100%,100%,100%);fill-opacity:1;" d="M 58.261719 148.105469 C 53.207031 148.105469 49.105469 144.019531 49.105469 138.976562 C 49.105469 104.773438 76.890625 77.050781 111.15625 77.050781 C 116.210938 77.050781 120.3125 81.140625 120.3125 86.1875 C 120.3125 91.230469 116.210938 95.320312 111.15625 95.320312 C 87 95.320312 67.417969 114.863281 67.417969 138.976562 C 67.417969 144.019531 63.320312 148.105469 58.261719 148.105469 Z M 58.261719 148.105469 "/>
</g>
</svg>
