<?xml version="1.0" encoding="UTF-8"?>
<svg xmlns="http://www.w3.org/2000/svg" xmlns:xlink="http://www.w3.org/1999/xlink" width="489pt" height="489pt" viewBox="0 0 489 489" version="1.1">
<g id="surface708">
<path style=" stroke:none;fill-rule:evenodd;fill:rgb(4.705882%,74.117649%,54.509807%);fill-opacity:1;" d="M 244.5 489 C 379.523438 489 489 379.523438 489 244.5 C 489 109.476562 379.523438 0 244.5 0 C 109.476562 0 0 109.476562 0 244.5 C 0 379.523438 109.476562 489 244.5 489 Z M 244.5 489 "/>
<path style=" stroke:none;fill-rule:evenodd;fill:rgb(100%,100%,100%);fill-opacity:1;" d="M 199.804688 113.921875 C 199.804688 104.058594 207.820312 96.050781 217.699219 96.050781 C 284.734375 96.050781 339.078125 150.285156 339.078125 217.175781 C 339.078125 227.039062 331.0625 235.042969 321.171875 235.042969 C 311.28125 235.042969 303.265625 227.039062 303.265625 217.175781 C 303.265625 170.023438 264.96875 131.796875 217.703125 131.796875 C 207.820312 131.796875 199.804688 123.792969 199.804688 113.921875 Z M 199.804688 113.921875 "/>
<path style=" stroke:none;fill-rule:evenodd;fill:rgb(100%,100%,100%);fill-opacity:1;" d="M 375.046875 199.296875 C 384.929688 199.296875 392.953125 207.292969 392.953125 217.167969 C 392.953125 284.050781 338.605469 338.277344 271.585938 338.277344 C 261.691406 338.277344 253.675781 330.28125 253.675781 320.40625 C 253.675781 310.542969 261.691406 302.542969 271.585938 302.542969 C 318.828125 302.542969 357.128906 264.316406 357.128906 217.171875 C 357.128906 207.292969 365.144531 199.296875 375.046875 199.296875 Z M 375.046875 199.296875 "/>
<path style=" stroke:none;fill-rule:evenodd;fill:rgb(100%,100%,100%);fill-opacity:1;" d="M 289.488281 375.078125 C 289.488281 384.949219 281.460938 392.953125 271.578125 392.953125 C 204.542969 392.953125 150.207031 338.71875 150.207031 271.828125 C 150.207031 261.960938 158.230469 253.96875 168.105469 253.96875 C 178.011719 253.96875 186.019531 261.960938 186.019531 271.828125 C 186.019531 318.992188 224.328125 357.210938 271.578125 357.210938 C 281.460938 357.210938 289.488281 365.210938 289.488281 375.078125 Z M 289.488281 375.078125 "/>
<path style=" stroke:none;fill-rule:evenodd;fill:rgb(100%,100%,100%);fill-opacity:1;" d="M 113.964844 289.703125 C 104.078125 289.703125 96.050781 281.707031 96.050781 271.847656 C 96.050781 204.949219 150.394531 150.722656 217.421875 150.722656 C 227.308594 150.722656 235.335938 158.71875 235.335938 168.59375 C 235.335938 178.457031 227.308594 186.457031 217.421875 186.457031 C 170.175781 186.457031 131.875 224.679688 131.875 271.847656 C 131.875 281.707031 123.855469 289.703125 113.964844 289.703125 Z M 113.964844 289.703125 "/>
</g>
</svg>
