<?xml version="1.0" encoding="UTF-8"?>
<svg xmlns="http://www.w3.org/2000/svg" xmlns:xlink="http://www.w3.org/1999/xlink" width="318pt" height="318pt" viewBox="0 0 318 318" version="1.1">
<g id="surface604">
<path style=" stroke:none;fill-rule:nonzero;fill:rgb(0%,0%,0%);fill-opacity:1;" d="M 92.808594 95.980469 L 138.632812 69.878906 C 137.789062 67.355469 137.1875 64.710938 137.1875 61.820312 C 137.1875 50.757812 145.242188 41.617188 155.832031 39.691406 L 155.832031 0.00390625 L 163.523438 0.00390625 L 163.523438 39.691406 C 174.113281 41.617188 182.167969 50.757812 182.167969 61.820312 C 182.167969 64.710938 181.566406 67.355469 180.605469 69.878906 L 226.546875 95.980469 C 228.230469 94.054688 230.273438 92.371094 232.558594 90.929688 C 242.183594 85.398438 254.207031 87.800781 261.066406 95.980469 L 295.460938 76.136719 L 299.308594 82.871094 L 264.914062 102.714844 C 268.640625 112.820312 264.675781 124.359375 255.050781 129.898438 C 252.886719 131.101562 250.722656 131.941406 248.4375 132.421875 L 248.4375 185.578125 C 250.722656 186.058594 252.886719 186.898438 255.050781 188.101562 C 264.675781 193.640625 268.640625 205.179688 264.914062 215.285156 L 299.308594 235.128906 L 295.460938 241.863281 L 261.066406 222.019531 C 254.207031 230.199219 242.183594 232.601562 232.558594 227.070312 C 230.273438 225.628906 228.230469 223.945312 226.546875 222.019531 C 211.273438 230.679688 195.996094 239.457031 180.605469 248.121094 C 181.566406 250.644531 182.167969 253.289062 182.167969 256.179688 C 182.167969 267.242188 174.113281 276.382812 163.523438 278.308594 L 163.523438 317.996094 L 155.832031 317.996094 L 155.832031 278.308594 C 145.242188 276.382812 137.1875 267.242188 137.1875 256.179688 C 137.1875 253.289062 137.789062 250.644531 138.632812 248.121094 L 92.808594 222.019531 C 91.125 223.945312 89.082031 225.628906 86.796875 227.070312 C 77.171875 232.601562 65.144531 230.199219 58.289062 222.019531 L 23.894531 241.863281 L 20.046875 235.128906 L 54.441406 215.285156 C 50.714844 205.179688 54.679688 193.640625 64.304688 188.101562 C 66.46875 186.898438 68.632812 186.058594 70.917969 185.578125 L 70.917969 132.421875 C 68.632812 131.941406 66.46875 131.101562 64.304688 129.898438 C 54.679688 124.359375 50.714844 112.820312 54.441406 102.714844 L 20.046875 82.871094 L 23.894531 76.136719 L 58.289062 95.980469 C 65.144531 87.800781 77.171875 85.398438 86.796875 90.929688 C 89.082031 92.371094 91.125 94.054688 92.808594 95.980469 Z M 222.699219 215.285156 C 220.53125 209.273438 220.894531 202.296875 224.382812 196.402344 C 227.992188 190.148438 234.121094 186.296875 240.738281 185.339844 L 240.738281 132.660156 C 234.121094 131.703125 227.992188 127.851562 224.382812 121.597656 C 220.894531 115.703125 220.53125 108.726562 222.699219 102.714844 L 176.757812 76.496094 C 172.546875 81.304688 166.53125 84.3125 159.679688 84.3125 C 152.824219 84.3125 146.808594 81.304688 142.597656 76.496094 L 96.65625 102.714844 C 98.824219 108.726562 98.460938 115.703125 94.972656 121.597656 C 91.363281 127.851562 85.230469 131.703125 78.613281 132.660156 L 78.613281 185.339844 C 85.230469 186.296875 91.363281 190.148438 94.972656 196.402344 C 98.460938 202.296875 98.824219 209.273438 96.65625 215.285156 L 142.597656 241.503906 C 146.808594 236.695312 152.824219 233.6875 159.679688 233.6875 C 166.53125 233.6875 172.546875 236.695312 176.757812 241.503906 Z M 222.699219 215.285156 "/>
</g>
</svg>
