<?xml version="1.0" encoding="UTF-8"?>
<svg xmlns="http://www.w3.org/2000/svg" xmlns:xlink="http://www.w3.org/1999/xlink" width="623pt" height="623pt" viewBox="0 0 623 623" version="1.1">
<g id="surface697">
<path style=" stroke:none;fill-rule:nonzero;fill:rgb(0%,0%,0%);fill-opacity:1;" d="M 181.820312 188.035156 L 271.59375 136.898438 C 269.941406 131.957031 268.765625 126.773438 268.765625 121.113281 C 268.765625 99.441406 284.542969 81.53125 305.292969 77.757812 L 305.292969 0.00390625 L 320.363281 0.00390625 L 320.363281 77.757812 C 341.113281 81.53125 356.886719 99.433594 356.886719 121.113281 C 356.886719 126.773438 355.714844 131.957031 353.828125 136.898438 L 443.832031 188.035156 C 447.132812 184.265625 451.132812 180.964844 455.613281 178.140625 C 474.460938 167.308594 498.027344 172.007812 511.464844 188.035156 L 578.847656 149.15625 L 586.382812 162.351562 L 518.996094 201.230469 C 526.296875 221.027344 518.53125 243.632812 499.671875 254.488281 C 495.4375 256.84375 491.195312 258.488281 486.71875 259.425781 L 486.71875 363.574219 C 491.195312 364.511719 495.4375 366.15625 499.671875 368.511719 C 518.53125 379.367188 526.296875 401.972656 518.996094 421.769531 L 586.382812 460.648438 L 578.847656 473.84375 L 511.464844 434.964844 C 498.027344 450.988281 474.460938 455.691406 455.613281 444.859375 C 451.132812 442.035156 447.132812 438.734375 443.832031 434.964844 C 413.910156 451.925781 383.980469 469.125 353.828125 486.101562 C 355.714844 491.042969 356.886719 496.226562 356.886719 501.886719 C 356.886719 523.558594 341.113281 541.46875 320.363281 545.242188 L 320.363281 622.996094 L 305.292969 622.996094 L 305.292969 545.242188 C 284.542969 541.46875 268.765625 523.558594 268.765625 501.886719 C 268.765625 496.226562 269.941406 491.042969 271.59375 486.101562 L 181.820312 434.964844 C 178.527344 438.734375 174.519531 442.035156 170.042969 444.859375 C 151.191406 455.691406 127.625 450.988281 114.191406 434.964844 L 46.816406 473.84375 L 39.273438 460.648438 L 106.65625 421.769531 C 99.355469 401.972656 107.128906 379.367188 125.980469 368.511719 C 130.222656 366.15625 134.457031 364.511719 138.933594 363.574219 L 138.933594 259.425781 C 134.457031 258.488281 130.222656 256.84375 125.980469 254.488281 C 107.128906 243.632812 99.355469 221.027344 106.65625 201.230469 L 39.273438 162.351562 L 46.816406 149.15625 L 114.191406 188.035156 C 127.625 172.007812 151.191406 167.308594 170.042969 178.140625 C 174.519531 180.964844 178.527344 184.265625 181.820312 188.035156 Z M 436.292969 421.757812 C 432.050781 409.980469 432.757812 396.3125 439.597656 384.765625 C 446.664062 372.511719 458.667969 364.964844 471.632812 363.09375 L 471.632812 259.886719 C 458.667969 258.011719 446.664062 250.464844 439.597656 238.21875 C 432.757812 226.667969 432.050781 213.003906 436.292969 201.226562 L 346.292969 149.855469 C 338.042969 159.277344 326.253906 165.167969 312.835938 165.167969 C 299.402344 165.167969 287.617188 159.277344 279.371094 149.855469 L 189.359375 201.226562 C 193.613281 213.003906 192.894531 226.667969 186.066406 238.21875 C 178.992188 250.464844 166.976562 258.011719 154.015625 259.886719 L 154.015625 363.09375 C 166.976562 364.964844 178.992188 372.511719 186.066406 384.765625 C 192.894531 396.3125 193.613281 409.980469 189.359375 421.757812 L 279.371094 473.125 C 287.617188 463.703125 299.40625 457.808594 312.835938 457.808594 C 326.253906 457.808594 338.035156 463.703125 346.292969 473.125 Z M 436.292969 421.757812 "/>
</g>
</svg>
