<?xml version="1.0" encoding="UTF-8"?>
<svg fill="none" viewBox="0 0 84 29" xmlns="http://www.w3.org/2000/svg"><path d="m6.7458 0h6.033c0.0749 0 0.1463 0.033368 0.1948 0.091337 0.0489 0.057725 0.0699 0.1342 0.0573 0.20922l-4.4411 27.134c-0.01953 0.1194-0.11861 0.209-0.23793 0.2158l-6.6334 0.3826c-0.00482 3e-4 -0.0094 5e-4 -0.01446 5e-4 -0.07232 0-0.14175-0.0309-0.1902-0.0857-0.05207-0.0587-0.07497-0.1379-0.06195-0.2153l3.7474-22.681c-0.07856-3.3793-4.2072-4.1964-4.711-4.3229-0.54365-0.13675-0.4865-0.72823-0.4865-0.72823h6.7441zm32.321 0.12233c-0.0456-0.075888-0.1268-0.12233-0.2144-0.12233h-6.5081c-0.0935 0-0.1787 0.052667-0.2222 0.13622l-8.9811 17.394-3.0571-17.321c-0.0215-0.12137-0.1252-0.20947-0.2465-0.20947h-6.5528c-0.0744 0-0.1454 0.033755-0.1929 0.092168-0.0474 0.057934-0.067 0.13478-0.0533 0.20923l4.8518 26.05c0.0224 0.1204 0.126 0.2068 0.246 0.2068 0.0045 0 0.0094-2e-4 0.0142-5e-4l7.5642-0.4381c0.0881-5e-3 0.1674-0.0567 0.208-0.1362l13.152-25.612c0.0406-0.079001 0.0375-0.17332-0.0078-0.24921zm20.27 5.4966c-0.084-0.78683-0.2625-1.4858-0.5308-2.0784-0.2693-0.59259-0.6081-1.1004-1.0067-1.5091-0.3939-0.40189-0.8073-0.73692-1.2341-0.99896-1.0338-0.59942-2.2626-0.94646-3.6675-1.0324h-12.433c-0.1193 0-0.2216 0.088289-0.2412 0.2086l-4.0141 24.583c-0.0124 0.0748 0.0097 0.1513 0.0592 0.2081 0.0463 0.053 0.1126 0.0829 0.1819 0.0829 0.0049 0 9e-3 -3e-4 0.0139-5e-4l6.2505-0.3647c0.1142-0.0066 0.2086-0.0935 0.2273-0.2088l0.7471-4.6323 6.0845-4e-4c1.3841-0.085 2.6907-0.4299 3.8833-1.0249 1.0316-0.5132 2.0378-1.3398 2.9915-2.456 0.9623-1.1268 1.6332-2.7304 1.9925-4.7672l0.5714-3.2947c0.1656-1.0187 0.2077-1.932 0.1241-2.7141zm-7.2086 5.8744c-0.0744 0.3793-0.2109 0.711-0.4085 0.9891-0.1714 0.2498-0.4031 0.4732-0.688 0.6632-0.2706 0.1806-0.644 0.2719-1.1094 0.2719h-5.2162l1.1032-7.0007h5.295c0.4521 0 0.7814 0.09111 0.9786 0.26981 0.2153 0.19588 0.3719 0.41696 0.4631 0.64886 0.0958 0.27123 0.1322 0.60178 0.1106 0.95682l-0.5284 3.201zm31.623-11.493h-6.3246c-0.121 0-0.2247 0.093021-0.2445 0.21978l-2.2533 14.337-4.885-14.383c-0.0358-0.10394-0.1287-0.17364-0.2333-0.17364h-6.3247c-0.1209 0-0.2246 0.093021-0.2445 0.21978l-3.8593 24.556c-0.0126 0.0788 0.0096 0.1595 0.06 0.2192 0.0469 0.0559 0.1142 0.0874 0.1843 0.0874 0.0049 0 6.4355-0.39 6.4355-0.39 0.1159-0.0069 0.2116-0.0982 0.2305-0.2198l1.6134-10.362 3.4074 10.075c0.0371 0.1102 0.1368 0.1769 0.2473 0.1739l8.5751-0.5202c0.1156-0.0069 0.2113-0.0979 0.2303-0.2197l3.63-23.313c0.0121-0.076401-0.0082-0.15429-0.0556-0.21308-0.047-0.059037-0.1163-0.093021-0.189-0.093021z" clip-rule="evenodd" fill="#f34" fill-rule="evenodd"/></svg>
