<?xml version="1.0" encoding="UTF-8"?>
<svg xmlns="http://www.w3.org/2000/svg" xmlns:xlink="http://www.w3.org/1999/xlink" width="480pt" height="160pt" viewBox="0 0 480 160" version="1.1">
<g id="surface587">
<path style=" stroke:none;fill-rule:evenodd;fill:rgb(100%,20%,26.666668%);fill-opacity:1;" d="M 38.554688 -0.00390625 L 73.027344 -0.00390625 C 73.457031 -0.00390625 73.863281 0.1875 74.140625 0.511719 C 74.417969 0.84375 74.539062 1.28125 74.46875 1.710938 L 49.09375 156.578125 C 48.980469 157.257812 48.414062 157.769531 47.730469 157.808594 L 9.824219 159.992188 C 9.796875 159.992188 9.769531 159.996094 9.742188 159.996094 C 9.332031 159.996094 8.929688 159.8125 8.65625 159.5 C 8.359375 159.171875 8.226562 158.714844 8.300781 158.277344 L 29.71875 28.824219 C 29.265625 9.53125 5.671875 4.867188 2.792969 4.148438 C -0.3125 3.367188 0.015625 -0.0078125 0.015625 -0.0078125 Z M 223.25 0.695312 C 222.992188 0.257812 222.53125 -0.00390625 222.027344 -0.00390625 L 184.839844 -0.00390625 C 184.300781 -0.00390625 183.8125 0.292969 183.570312 0.773438 L 132.246094 100.046875 L 114.773438 1.1875 C 114.652344 0.492188 114.0625 -0.0078125 113.367188 -0.0078125 L 75.921875 -0.0078125 C 75.5 -0.0078125 75.09375 0.179688 74.820312 0.511719 C 74.550781 0.84375 74.4375 1.285156 74.515625 1.710938 L 102.242188 150.390625 C 102.367188 151.078125 102.960938 151.570312 103.648438 151.570312 C 103.671875 151.570312 103.703125 151.566406 103.726562 151.566406 L 146.953125 149.066406 C 147.457031 149.039062 147.910156 148.746094 148.140625 148.289062 L 223.296875 2.109375 C 223.53125 1.65625 223.511719 1.117188 223.25 0.683594 Z M 339.082031 32.066406 C 338.601562 27.574219 337.582031 23.585938 336.050781 20.199219 C 334.511719 16.816406 332.574219 13.921875 330.296875 11.585938 C 328.046875 9.292969 325.683594 7.382812 323.242188 5.882812 C 317.339844 2.464844 310.316406 0.484375 302.285156 -0.0078125 L 231.242188 -0.0078125 C 230.554688 -0.0078125 229.976562 0.5 229.863281 1.179688 L 206.921875 141.492188 C 206.851562 141.921875 206.976562 142.359375 207.261719 142.679688 C 207.523438 142.984375 207.90625 143.15625 208.300781 143.15625 C 208.328125 143.15625 208.355469 143.15625 208.378906 143.15625 L 244.097656 141.070312 C 244.75 141.035156 245.292969 140.539062 245.394531 139.878906 L 249.667969 113.441406 L 284.433594 113.4375 C 292.34375 112.953125 299.808594 110.984375 306.625 107.585938 C 312.519531 104.65625 318.273438 99.941406 323.71875 93.570312 C 329.21875 87.140625 333.050781 77.988281 335.109375 66.363281 L 338.375 47.558594 C 339.316406 41.742188 339.5625 36.527344 339.082031 32.066406 Z M 297.890625 65.589844 C 297.464844 67.757812 296.683594 69.648438 295.554688 71.234375 C 294.574219 72.660156 293.25 73.941406 291.625 75.023438 C 290.078125 76.054688 287.945312 76.570312 285.28125 76.570312 L 255.476562 76.570312 L 261.78125 36.617188 L 292.039062 36.617188 C 294.625 36.617188 296.503906 37.140625 297.632812 38.160156 C 298.863281 39.277344 299.757812 40.539062 300.277344 41.859375 C 300.824219 43.40625 301.035156 45.296875 300.90625 47.324219 Z M 478.597656 -0.0078125 L 442.457031 -0.0078125 C 441.765625 -0.0078125 441.175781 0.523438 441.058594 1.246094 L 428.183594 83.070312 L 400.269531 0.980469 C 400.0625 0.386719 399.535156 -0.0078125 398.9375 -0.0078125 L 362.792969 -0.0078125 C 362.105469 -0.0078125 361.515625 0.515625 361.398438 1.246094 L 339.34375 141.402344 C 339.273438 141.851562 339.398438 142.308594 339.6875 142.652344 C 339.957031 142.96875 340.34375 143.148438 340.742188 143.148438 C 340.765625 143.148438 377.515625 140.921875 377.515625 140.921875 C 378.179688 140.882812 378.726562 140.367188 378.832031 139.671875 L 388.050781 80.523438 L 407.523438 138.027344 C 407.734375 138.65625 408.304688 139.039062 408.9375 139.019531 L 457.9375 136.050781 C 458.597656 136.011719 459.144531 135.488281 459.253906 134.796875 L 479.996094 1.734375 C 480.0625 1.296875 479.953125 0.855469 479.679688 0.515625 C 479.410156 0.179688 479.015625 -0.015625 478.597656 -0.015625 Z M 478.597656 -0.0078125 "/>
</g>
</svg>
