<?xml version="1.0" encoding="UTF-8"?>
<svg xmlns="http://www.w3.org/2000/svg" xmlns:xlink="http://www.w3.org/1999/xlink" width="160pt" height="160pt" viewBox="0 0 160 160" version="1.1">
<g id="surface552">
<path style=" stroke:none;fill-rule:nonzero;fill:rgb(0%,50.980395%,78.823531%);fill-opacity:1;" d="M 80.121094 27.578125 C 63.535156 27.578125 49.476562 38.824219 45.121094 54.058594 C 41.335938 45.976562 33.128906 40.316406 23.679688 40.316406 C 10.683594 40.316406 0 51 0 64 C 0 76.992188 10.683594 87.6875 23.679688 87.6875 C 33.128906 87.6875 41.335938 82.023438 45.121094 73.941406 C 49.476562 89.171875 63.535156 100.421875 80.121094 100.421875 C 96.582031 100.421875 110.566406 89.339844 115.035156 74.277344 C 118.890625 82.179688 126.996094 87.6875 136.3125 87.6875 C 149.3125 87.6875 160 76.996094 160 64 C 160 51 149.3125 40.316406 136.3125 40.316406 C 126.996094 40.316406 118.890625 45.820312 115.035156 53.714844 C 110.566406 38.652344 96.582031 27.578125 80.121094 27.578125 Z M 80.121094 41.480469 C 92.640625 41.480469 102.640625 51.480469 102.640625 64 C 102.640625 76.519531 92.640625 86.519531 80.121094 86.519531 C 67.601562 86.519531 57.601562 76.519531 57.601562 64 C 57.601562 51.480469 67.601562 41.480469 80.121094 41.480469 Z M 23.675781 54.21875 C 29.164062 54.21875 33.460938 58.511719 33.460938 64 C 33.460938 69.484375 29.164062 73.785156 23.675781 73.785156 C 18.195312 73.785156 13.898438 69.484375 13.898438 64 C 13.898438 58.511719 18.195312 54.21875 23.675781 54.21875 Z M 136.3125 54.21875 C 141.796875 54.21875 146.097656 58.511719 146.097656 64 C 146.097656 69.484375 141.796875 73.785156 136.3125 73.785156 C 130.824219 73.785156 126.53125 69.484375 126.53125 64 C 126.53125 58.511719 130.824219 54.21875 136.3125 54.21875 Z M 136.3125 54.21875 "/>
<path style=" stroke:none;fill-rule:nonzero;fill:rgb(0%,50.980395%,78.823531%);fill-opacity:1;" d="M 40.894531 117.152344 C 44.789062 117.152344 46.972656 119.925781 46.972656 124.09375 C 46.972656 124.488281 46.640625 124.820312 46.246094 124.820312 L 35.738281 124.820312 C 35.804688 128.519531 38.378906 130.632812 41.351562 130.632812 C 43.203125 130.632812 44.527344 129.839844 45.1875 129.3125 C 45.585938 129.046875 45.914062 129.109375 46.113281 129.511719 L 46.308594 129.839844 C 46.507812 130.171875 46.445312 130.503906 46.113281 130.765625 C 45.316406 131.363281 43.601562 132.351562 41.289062 132.351562 C 36.992188 132.351562 33.691406 129.25 33.691406 124.75 C 33.753906 119.996094 36.929688 117.152344 40.894531 117.152344 Z M 44.921875 123.363281 C 44.789062 120.328125 42.9375 118.804688 40.824219 118.804688 C 38.378906 118.804688 36.265625 120.390625 35.804688 123.363281 Z M 44.921875 123.363281 "/>
<path style=" stroke:none;fill-rule:nonzero;fill:rgb(0%,50.980395%,78.823531%);fill-opacity:1;" d="M 66.816406 119.265625 L 66.816406 114.179688 C 66.816406 113.714844 67.078125 113.453125 67.542969 113.453125 L 68.070312 113.453125 C 68.535156 113.453125 68.730469 113.714844 68.730469 114.179688 L 68.730469 117.617188 L 71.703125 117.617188 C 72.167969 117.617188 72.429688 117.882812 72.429688 118.34375 L 72.429688 118.539062 C 72.429688 119.003906 72.167969 119.199219 71.703125 119.199219 L 68.730469 119.199219 L 68.730469 126.46875 C 68.730469 129.839844 70.78125 130.238281 71.90625 130.304688 C 72.5 130.371094 72.695312 130.503906 72.695312 131.03125 L 72.695312 131.425781 C 72.695312 131.890625 72.5 132.085938 71.90625 132.085938 C 68.730469 132.085938 66.816406 130.171875 66.816406 126.734375 Z M 66.816406 119.265625 "/>
<path style=" stroke:none;fill-rule:nonzero;fill:rgb(0%,50.980395%,78.823531%);fill-opacity:1;" d="M 81.949219 117.152344 C 84.457031 117.152344 86.046875 118.207031 86.773438 118.804688 C 87.101562 119.066406 87.167969 119.398438 86.835938 119.796875 L 86.640625 120.125 C 86.375 120.523438 86.046875 120.523438 85.648438 120.257812 C 84.984375 119.796875 83.730469 118.9375 82.011719 118.9375 C 78.84375 118.9375 76.332031 121.320312 76.332031 124.820312 C 76.332031 128.257812 78.84375 130.632812 82.011719 130.632812 C 84.0625 130.632812 85.449219 129.707031 86.109375 129.109375 C 86.507812 128.847656 86.773438 128.914062 87.035156 129.3125 L 87.230469 129.574219 C 87.429688 129.96875 87.367188 130.238281 87.035156 130.566406 C 86.308594 131.164062 84.527344 132.417969 81.878906 132.417969 C 77.585938 132.417969 74.28125 129.3125 74.28125 124.820312 C 74.351562 120.328125 77.652344 117.152344 81.949219 117.152344 Z M 81.949219 117.152344 "/>
<path style=" stroke:none;fill-rule:nonzero;fill:rgb(0%,50.980395%,78.823531%);fill-opacity:1;" d="M 90.738281 112.460938 C 90.738281 111.996094 90.472656 111.734375 90.933594 111.734375 L 91.464844 111.734375 C 91.921875 111.734375 92.652344 111.996094 92.652344 112.460938 L 92.652344 128.257812 C 92.652344 130.101562 93.511719 130.304688 94.171875 130.371094 C 94.5 130.371094 94.765625 130.566406 94.765625 131.03125 L 94.765625 131.492188 C 94.765625 131.953125 94.570312 132.21875 94.039062 132.21875 C 92.851562 132.21875 90.738281 131.820312 90.738281 128.652344 Z M 90.738281 112.460938 "/>
<path style=" stroke:none;fill-rule:nonzero;fill:rgb(0%,50.980395%,78.823531%);fill-opacity:1;" d="M 104.28125 117.152344 C 108.511719 117.152344 111.949219 120.390625 111.949219 124.6875 C 111.949219 129.046875 108.511719 132.351562 104.28125 132.351562 C 100.054688 132.351562 96.617188 129.046875 96.617188 124.6875 C 96.617188 120.390625 100.054688 117.152344 104.28125 117.152344 Z M 104.28125 130.632812 C 107.386719 130.632812 109.898438 128.121094 109.898438 124.6875 C 109.898438 121.382812 107.386719 118.9375 104.28125 118.9375 C 101.175781 118.9375 98.597656 121.449219 98.597656 124.6875 C 98.667969 128.054688 101.175781 130.632812 104.28125 130.632812 Z M 104.28125 130.632812 "/>
<path style=" stroke:none;fill-rule:nonzero;fill:rgb(0%,50.980395%,78.823531%);fill-opacity:1;" d="M 137.257812 117.152344 C 140.757812 117.152344 142.011719 120.058594 142.011719 120.058594 L 142.078125 120.058594 C 142.078125 120.058594 142.011719 119.601562 142.011719 118.9375 L 142.011719 112.398438 C 142.011719 111.933594 141.816406 111.671875 142.28125 111.671875 L 142.808594 111.671875 C 143.273438 111.671875 143.992188 111.933594 143.992188 112.398438 L 143.992188 131.230469 C 143.992188 131.6875 143.796875 131.953125 143.335938 131.953125 L 142.871094 131.953125 C 142.414062 131.953125 142.148438 131.757812 142.148438 131.292969 L 142.148438 130.171875 C 142.148438 129.644531 142.28125 129.25 142.28125 129.25 L 142.210938 129.25 C 142.210938 129.25 140.957031 132.285156 137.191406 132.285156 C 133.289062 132.285156 130.84375 129.179688 130.84375 124.6875 C 130.710938 120.191406 133.421875 117.152344 137.257812 117.152344 Z M 137.324219 130.632812 C 139.765625 130.632812 142.011719 128.914062 142.011719 124.75 C 142.011719 121.777344 140.492188 118.9375 137.386719 118.9375 C 134.808594 118.9375 132.695312 121.050781 132.695312 124.75 C 132.765625 128.320312 134.613281 130.632812 137.324219 130.632812 Z M 137.324219 130.632812 "/>
<path style=" stroke:none;fill-rule:nonzero;fill:rgb(0%,50.980395%,78.823531%);fill-opacity:1;" d="M 16.660156 132.023438 L 17.1875 132.023438 C 17.652344 132.023438 17.914062 131.757812 17.914062 131.292969 L 17.914062 117.105469 C 17.914062 114.859375 20.359375 113.257812 23.132812 113.257812 C 25.914062 113.257812 28.355469 114.859375 28.355469 117.105469 L 28.355469 131.292969 C 28.355469 131.757812 28.625 132.023438 29.082031 132.023438 L 29.613281 132.023438 C 30.074219 132.023438 30.273438 131.757812 30.273438 131.292969 L 30.273438 117.023438 C 30.273438 113.25 26.507812 111.40625 23.070312 111.40625 C 19.765625 111.40625 16 113.25 16 117.023438 L 16 131.292969 C 16 131.757812 16.195312 132.023438 16.660156 132.023438 Z M 16.660156 132.023438 "/>
<path style=" stroke:none;fill-rule:nonzero;fill:rgb(0%,50.980395%,78.823531%);fill-opacity:1;" d="M 126.949219 117.484375 L 126.421875 117.484375 C 125.957031 117.484375 125.695312 117.75 125.695312 118.207031 L 125.695312 126.207031 C 125.695312 128.453125 124.238281 130.503906 121.398438 130.503906 C 118.625 130.503906 117.101562 128.453125 117.101562 126.207031 L 117.101562 118.207031 C 117.101562 117.75 116.835938 117.484375 116.375 117.484375 L 115.84375 117.484375 C 115.386719 117.484375 115.1875 117.75 115.1875 118.207031 L 115.1875 126.734375 C 115.1875 130.503906 117.960938 132.351562 121.398438 132.351562 C 124.835938 132.351562 127.609375 130.503906 127.609375 126.734375 L 127.609375 118.207031 C 127.675781 117.75 127.414062 117.484375 126.949219 117.484375 Z M 126.949219 117.484375 "/>
<path style=" stroke:none;fill-rule:nonzero;fill:rgb(0%,50.980395%,78.823531%);fill-opacity:1;" d="M 61.53125 117.375 C 61.371094 117.402344 61.214844 117.507812 61.070312 117.6875 L 58.394531 120.875 L 56.390625 123.257812 L 53.363281 119.648438 L 51.71875 117.6875 C 51.566406 117.507812 51.402344 117.414062 51.226562 117.398438 C 51.050781 117.382812 50.867188 117.445312 50.695312 117.597656 L 50.289062 117.933594 C 49.929688 118.234375 49.953125 118.5625 50.25 118.914062 L 52.925781 122.105469 L 55.140625 124.746094 L 51.894531 128.617188 C 51.890625 128.625 51.890625 128.625 51.890625 128.628906 L 50.25 130.582031 C 49.953125 130.933594 49.984375 131.308594 50.335938 131.605469 L 50.742188 131.945312 C 51.097656 132.242188 51.421875 132.167969 51.71875 131.8125 L 54.390625 128.625 L 56.390625 126.242188 L 59.421875 129.851562 C 59.421875 129.851562 59.429688 129.851562 59.429688 129.859375 L 61.070312 131.8125 C 61.367188 132.167969 61.738281 132.195312 62.09375 131.898438 L 62.5 131.5625 C 62.851562 131.265625 62.832031 130.933594 62.539062 130.582031 L 59.863281 127.390625 L 57.640625 124.75 L 60.894531 120.878906 C 60.894531 120.875 60.894531 120.875 60.898438 120.867188 L 62.539062 118.914062 C 62.832031 118.5625 62.804688 118.1875 62.445312 117.890625 L 62.039062 117.554688 C 61.867188 117.402344 61.695312 117.347656 61.53125 117.375 Z M 61.53125 117.375 "/>
</g>
</svg>
