<?xml version="1.0" encoding="UTF-8"?>
<svg xmlns="http://www.w3.org/2000/svg" xmlns:xlink="http://www.w3.org/1999/xlink" width="313pt" height="313pt" viewBox="0 0 313 313" version="1.1">
<g id="surface657">
<path style=" stroke:none;fill-rule:nonzero;fill:rgb(0%,50.980395%,78.823531%);fill-opacity:1;" d="M 156.738281 53.949219 C 124.289062 53.949219 96.785156 75.953125 88.269531 105.753906 C 80.863281 89.9375 64.804688 78.867188 46.324219 78.867188 C 20.902344 78.867188 0 99.769531 0 125.199219 C 0 150.613281 20.902344 171.539062 46.324219 171.539062 C 64.804688 171.539062 80.867188 160.460938 88.269531 144.644531 C 96.785156 174.445312 124.289062 196.453125 156.738281 196.453125 C 188.933594 196.453125 216.292969 174.769531 225.039062 145.304688 C 232.578125 160.757812 248.4375 171.539062 266.660156 171.539062 C 292.09375 171.539062 313 150.625 313 125.199219 C 313 99.769531 292.09375 78.867188 266.660156 78.867188 C 248.4375 78.867188 232.578125 89.636719 225.039062 105.074219 C 216.292969 75.609375 188.933594 53.945312 156.738281 53.945312 Z M 156.738281 81.144531 C 181.226562 81.144531 200.789062 100.707031 200.789062 125.199219 C 200.789062 149.691406 181.226562 169.253906 156.738281 169.253906 C 132.242188 169.253906 112.679688 149.691406 112.679688 125.199219 C 112.679688 100.707031 132.242188 81.144531 156.738281 81.144531 Z M 46.3125 106.066406 C 57.054688 106.066406 65.460938 114.464844 65.460938 125.199219 C 65.460938 135.929688 57.054688 144.34375 46.3125 144.34375 C 35.597656 144.34375 27.191406 135.929688 27.191406 125.199219 C 27.191406 114.460938 35.597656 106.066406 46.3125 106.066406 Z M 266.667969 106.066406 C 277.394531 106.066406 285.808594 114.464844 285.808594 125.199219 C 285.808594 135.929688 277.394531 144.34375 266.667969 144.34375 C 255.929688 144.34375 247.535156 135.929688 247.535156 125.199219 C 247.535156 114.460938 255.929688 106.066406 266.667969 106.066406 Z M 266.667969 106.066406 "/>
<path style=" stroke:none;fill-rule:nonzero;fill:rgb(0%,50.980395%,78.823531%);fill-opacity:1;" d="M 80 229.175781 C 87.621094 229.175781 91.890625 234.597656 91.890625 242.75 C 91.890625 243.523438 91.238281 244.179688 90.472656 244.179688 L 69.910156 244.179688 C 70.042969 251.40625 75.074219 255.546875 80.894531 255.546875 C 84.515625 255.546875 87.105469 253.996094 88.398438 252.960938 C 89.179688 252.445312 89.820312 252.5625 90.207031 253.355469 L 90.59375 253.996094 C 90.984375 254.644531 90.863281 255.289062 90.207031 255.804688 C 88.648438 256.976562 85.296875 258.910156 80.773438 258.910156 C 72.371094 258.910156 65.90625 252.839844 65.90625 244.039062 C 66.027344 234.738281 72.246094 229.175781 80 229.175781 Z M 87.878906 241.324219 C 87.621094 235.386719 83.996094 232.40625 79.863281 232.40625 C 75.074219 232.40625 70.945312 235.507812 70.042969 241.324219 Z M 87.878906 241.324219 "/>
<path style=" stroke:none;fill-rule:nonzero;fill:rgb(0%,50.980395%,78.823531%);fill-opacity:1;" d="M 130.707031 233.320312 L 130.707031 223.375 C 130.707031 222.464844 131.21875 221.945312 132.136719 221.945312 L 133.160156 221.945312 C 134.070312 221.945312 134.453125 222.464844 134.453125 223.375 L 134.453125 230.097656 L 140.269531 230.097656 C 141.183594 230.097656 141.6875 230.617188 141.6875 231.515625 L 141.6875 231.902344 C 141.6875 232.8125 141.183594 233.191406 140.269531 233.191406 L 134.453125 233.191406 L 134.453125 247.410156 C 134.453125 254.007812 138.464844 254.792969 140.664062 254.917969 C 141.828125 255.046875 142.210938 255.308594 142.210938 256.335938 L 142.210938 257.109375 C 142.210938 258.019531 141.828125 258.402344 140.664062 258.402344 C 134.453125 258.402344 130.707031 254.65625 130.707031 247.929688 Z M 130.707031 233.320312 "/>
<path style=" stroke:none;fill-rule:nonzero;fill:rgb(0%,50.980395%,78.823531%);fill-opacity:1;" d="M 160.316406 229.175781 C 165.214844 229.175781 168.332031 231.238281 169.75 232.40625 C 170.390625 232.914062 170.527344 233.570312 169.871094 234.347656 L 169.488281 234.988281 C 168.972656 235.773438 168.332031 235.773438 167.546875 235.25 C 166.25 234.347656 163.796875 232.667969 160.4375 232.667969 C 154.242188 232.667969 149.320312 237.332031 149.320312 244.179688 C 149.320312 250.898438 154.242188 255.546875 160.4375 255.546875 C 164.445312 255.546875 167.160156 253.730469 168.453125 252.5625 C 169.226562 252.054688 169.75 252.183594 170.261719 252.960938 L 170.644531 253.476562 C 171.03125 254.242188 170.90625 254.773438 170.261719 255.414062 C 168.84375 256.585938 165.355469 259.035156 160.171875 259.035156 C 151.777344 259.035156 145.308594 252.960938 145.308594 244.179688 C 145.445312 235.386719 151.90625 229.175781 160.316406 229.175781 Z M 160.316406 229.175781 "/>
<path style=" stroke:none;fill-rule:nonzero;fill:rgb(0%,50.980395%,78.823531%);fill-opacity:1;" d="M 177.503906 220 C 177.503906 219.089844 176.988281 218.582031 177.890625 218.582031 L 178.929688 218.582031 C 179.824219 218.582031 181.25 219.089844 181.25 220 L 181.25 250.898438 C 181.25 254.507812 182.933594 254.902344 184.226562 255.035156 C 184.867188 255.035156 185.382812 255.417969 185.382812 256.328125 L 185.382812 257.226562 C 185.382812 258.132812 185.003906 258.65625 183.960938 258.65625 C 181.636719 258.65625 177.503906 257.871094 177.503906 251.671875 Z M 177.503906 220 "/>
<path style=" stroke:none;fill-rule:nonzero;fill:rgb(0%,50.980395%,78.823531%);fill-opacity:1;" d="M 203.996094 229.175781 C 212.273438 229.175781 218.996094 235.507812 218.996094 243.914062 C 218.996094 252.445312 212.273438 258.910156 203.996094 258.910156 C 195.726562 258.910156 189.003906 252.445312 189.003906 243.914062 C 189.003906 235.507812 195.726562 229.175781 203.996094 229.175781 Z M 203.996094 255.546875 C 210.070312 255.546875 214.988281 250.632812 214.988281 243.914062 C 214.988281 237.449219 210.070312 232.667969 203.996094 232.667969 C 197.921875 232.667969 192.882812 237.582031 192.882812 243.914062 C 193.011719 250.503906 197.921875 255.546875 203.996094 255.546875 Z M 203.996094 255.546875 "/>
<path style=" stroke:none;fill-rule:nonzero;fill:rgb(0%,50.980395%,78.823531%);fill-opacity:1;" d="M 268.515625 229.175781 C 275.363281 229.175781 277.8125 234.859375 277.8125 234.859375 L 277.945312 234.859375 C 277.945312 234.859375 277.8125 233.96875 277.8125 232.667969 L 277.8125 219.878906 C 277.8125 218.964844 277.433594 218.453125 278.34375 218.453125 L 279.371094 218.453125 C 280.28125 218.453125 281.691406 218.964844 281.691406 219.878906 L 281.691406 256.714844 C 281.691406 257.609375 281.308594 258.128906 280.402344 258.128906 L 279.496094 258.128906 C 278.597656 258.128906 278.082031 257.746094 278.082031 256.835938 L 278.082031 254.644531 C 278.082031 253.609375 278.34375 252.839844 278.34375 252.839844 L 278.203125 252.839844 C 278.203125 252.839844 275.753906 258.773438 268.386719 258.773438 C 260.75 258.773438 255.96875 252.703125 255.96875 243.914062 C 255.707031 235.117188 261.011719 229.175781 268.515625 229.175781 Z M 268.640625 255.546875 C 273.425781 255.546875 277.8125 252.183594 277.8125 244.039062 C 277.8125 238.222656 274.84375 232.667969 268.765625 232.667969 C 263.722656 232.667969 259.589844 236.800781 259.589844 244.039062 C 259.730469 251.027344 263.339844 255.546875 268.640625 255.546875 Z M 268.640625 255.546875 "/>
<path style=" stroke:none;fill-rule:nonzero;fill:rgb(0%,50.980395%,78.823531%);fill-opacity:1;" d="M 32.589844 258.265625 L 33.625 258.265625 C 34.53125 258.265625 35.042969 257.742188 35.042969 256.835938 L 35.042969 229.078125 C 35.042969 224.683594 39.828125 221.550781 45.25 221.550781 C 50.691406 221.550781 55.46875 224.683594 55.46875 229.078125 L 55.46875 256.835938 C 55.46875 257.742188 55.996094 258.265625 56.886719 258.265625 L 57.929688 258.265625 C 58.835938 258.265625 59.21875 257.742188 59.21875 256.835938 L 59.21875 228.921875 C 59.21875 221.539062 51.851562 217.929688 45.128906 217.929688 C 38.664062 217.929688 31.300781 221.539062 31.300781 228.921875 L 31.300781 256.835938 C 31.300781 257.742188 31.679688 258.265625 32.589844 258.265625 Z M 32.589844 258.265625 "/>
<path style=" stroke:none;fill-rule:nonzero;fill:rgb(0%,50.980395%,78.823531%);fill-opacity:1;" d="M 248.347656 229.820312 L 247.3125 229.820312 C 246.410156 229.820312 245.894531 230.34375 245.894531 231.234375 L 245.894531 246.882812 C 245.894531 251.28125 243.042969 255.289062 237.488281 255.289062 C 232.058594 255.289062 229.082031 251.28125 229.082031 246.882812 L 229.082031 231.234375 C 229.082031 230.34375 228.5625 229.820312 227.660156 229.820312 L 226.621094 229.820312 C 225.726562 229.820312 225.335938 230.34375 225.335938 231.234375 L 225.335938 247.914062 C 225.335938 255.289062 230.765625 258.90625 237.488281 258.90625 C 244.214844 258.90625 249.636719 255.289062 249.636719 247.914062 L 249.636719 231.234375 C 249.765625 230.34375 249.253906 229.820312 248.347656 229.820312 Z M 248.347656 229.820312 "/>
<path style=" stroke:none;fill-rule:nonzero;fill:rgb(0%,50.980395%,78.823531%);fill-opacity:1;" d="M 120.367188 229.625 C 120.058594 229.671875 119.75 229.882812 119.46875 230.242188 L 114.234375 236.472656 L 110.3125 241.132812 L 104.390625 234.070312 L 101.175781 230.242188 C 100.875 229.882812 100.554688 229.703125 100.207031 229.667969 C 99.867188 229.640625 99.503906 229.761719 99.171875 230.058594 L 98.375 230.714844 C 97.671875 231.308594 97.71875 231.953125 98.300781 232.636719 L 103.535156 238.878906 L 107.867188 244.042969 L 101.519531 251.617188 C 101.511719 251.632812 101.511719 251.632812 101.511719 251.640625 L 98.300781 255.460938 C 97.71875 256.148438 97.78125 256.878906 98.46875 257.460938 L 99.261719 258.128906 C 99.960938 258.710938 100.59375 258.5625 101.175781 257.871094 L 106.402344 251.632812 L 110.3125 246.972656 L 116.246094 254.027344 C 116.246094 254.027344 116.253906 254.027344 116.253906 254.046875 L 119.46875 257.871094 C 120.046875 258.5625 120.773438 258.617188 121.472656 258.035156 L 122.265625 257.382812 C 122.949219 256.800781 122.910156 256.148438 122.339844 255.460938 L 117.105469 249.222656 L 112.757812 244.050781 L 119.125 236.480469 C 119.125 236.472656 119.125 236.472656 119.128906 236.457031 L 122.339844 232.636719 C 122.910156 231.953125 122.855469 231.21875 122.15625 230.636719 L 121.359375 229.976562 C 121.023438 229.671875 120.691406 229.570312 120.367188 229.625 Z M 120.367188 229.625 "/>
</g>
</svg>
