<?xml version="1.0" encoding="UTF-8"?>
<svg xmlns="http://www.w3.org/2000/svg" xmlns:xlink="http://www.w3.org/1999/xlink" width="160pt" height="160pt" viewBox="0 0 160 160" version="1.1">
<g id="surface532">
<path style=" stroke:none;fill-rule:nonzero;fill:rgb(0%,0%,0%);fill-opacity:1;" d="M 140 80 C 140 46.859375 113.132812 20 80 20 C 62.476562 20 46.710938 27.515625 35.742188 39.492188 L 56.109375 59.859375 C 61.839844 53.0625 70.414062 48.75 80 48.75 C 97.261719 48.75 111.25 62.738281 111.25 80 L 97.5 80 L 125 107.5 L 152.5 80 Z M 140 80 "/>
<path style=" stroke:none;fill-rule:nonzero;fill:rgb(30.588236%,5.098039%,30.588236%);fill-opacity:1;" d="M 160 80 C 160 124.179688 124.179688 160 80 160 C 35.816406 160 0 124.179688 0 80 C 0 35.816406 35.816406 0 80 0 C 124.179688 0 160 35.816406 160 80 Z M 160 80 "/>
<path style=" stroke:none;fill-rule:nonzero;fill:rgb(100%,100%,100%);fill-opacity:1;" d="M 140 80 C 140 46.859375 113.132812 20 80 20 C 62.476562 20 46.710938 27.515625 35.742188 39.492188 L 56.109375 59.859375 C 61.839844 53.0625 70.414062 48.75 80 48.75 C 97.261719 48.75 111.25 62.738281 111.25 80 L 97.5 80 L 125 107.5 L 152.5 80 Z M 140 80 "/>
<path style=" stroke:none;fill-rule:nonzero;fill:rgb(100%,100%,100%);fill-opacity:1;" d="M 20 80 C 20 113.132812 46.859375 140 80 140 C 97.519531 140 113.289062 132.484375 124.257812 120.507812 L 103.890625 100.140625 C 98.160156 106.933594 89.585938 111.25 80 111.25 C 62.738281 111.25 48.75 97.261719 48.75 80 L 62.5 80 L 35 52.5 L 7.5 80 Z M 20 80 "/>
</g>
</svg>
