<?xml version="1.0" encoding="UTF-8"?>
<svg fill="none" viewBox="0 0 153 28" xmlns="http://www.w3.org/2000/svg"><g clip-rule="evenodd" fill-rule="evenodd"><path d="m13.34 27.657-12.539-5.7671c-1.0682-0.5034-1.0682-1.2815 0-1.7392l4.3655-2.0139 8.1273 3.7531c1.0681 0.5035 2.7865 0.5035 3.8082 0l8.1273-3.7531 4.3655 2.0139c1.0681 0.5034 1.0681 1.2815 0 1.7392l-12.539 5.7671c-0.9752 0.4577-2.6936 0.4577-3.7153 0z" fill="#FF6F3D"/><path d="m13.34 20.562-12.539-5.767c-1.0682-0.5035-1.0682-1.2816 0-1.7393l4.2726-1.9681 8.2666 3.7989c1.0682 0.5035 2.7865 0.5035 3.8082 0l8.2666-3.7989 4.2726 1.9681c1.0682 0.5035 1.0682 1.2816 0 1.7393l-12.539 5.767c-1.0681 0.5035-2.7865 0.5035-3.8082 0z" fill="#95C038"/><path d="m13.34 13.651-12.539-5.7671c-1.0682-0.50348-1.0682-1.2816 0-1.7393l12.539-5.7671c1.0682-0.50347 2.7865-0.50347 3.8082 0l12.539 5.7671c1.0682 0.50347 1.0682 1.2816 0 1.7393l-12.539 5.7671c-1.0681 0.4577-2.7865 0.4577-3.8082 0z" fill="#5DC0E8"/></g><g fill="#333"><path d="m38.153 13.943c0-2.3851 0.6914-4.1852 2.1203-5.3553 1.3828-1.2151 3.0421-1.8001 4.9319-1.8001s3.5031 0.58503 4.8859 1.8001c1.3828 1.2151 2.0742 2.9702 2.0742 5.4003 0 2.3852-0.6914 4.1853-2.0742 5.3553-1.3828 1.2151-3.0422 1.8001-4.8859 1.8001-1.8898 0-3.503-0.585-4.9319-1.8001-1.4289-1.215-2.1203-3.0151-2.1203-5.4003zm3.0421 0c0 1.6651 0.3227 2.8352 0.9219 3.6002 0.6453 0.7651 1.3367 1.2601 2.0742 1.4401 0.1843 0.045 0.3226 0.09 0.507 0.09 0.1383 0 0.3226 0.045 0.4609 0.045 0.1844 0 0.3227 0 0.507-0.045 0.1844 0 0.3227-0.045 0.5071-0.09 0.7375-0.18 1.4289-0.675 2.0281-1.4401 0.5992-0.765 0.9218-1.9801 0.9218-3.5552 0-1.6201-0.3226-2.7901-0.9218-3.5552-0.5992-0.765-1.2906-1.26-2.0281-1.44-0.1844-0.045-0.3688-0.09-0.5071-0.09-0.1843 0-0.3226-0.04501-0.507-0.04501-0.1843 0-0.3226 0-0.4609 0.04501-0.1383 0-0.3227 0.045-0.507 0.09-0.7375 0.18001-1.4289 0.67504-2.0742 1.44-0.5992 0.6751-0.9219 1.8901-0.9219 3.5102z"/><path d="m53.686 6.9228h3.7796l4.9781 8.8204 0.7375 1.9351h0.0461l-0.0461-2.5201v-8.2354h2.9038v14.041h-3.7796l-4.978-9.1805-0.7375-1.5751h-0.0461l0.0461 2.4752v8.2804h-2.9039v-14.041z"/><path d="m69.081 6.9228h2.9039v11.656h5.7155v2.3851h-8.6194v-14.041z"/><path d="m75.903 6.9228h3.3648l2.9499 4.9052 0.4609 0.9901h0.0922l0.461-0.9901 2.996-4.9052h3.0882l-5.2085 8.3254v5.7153h-2.9038v-5.7603l-5.3007-8.2804z"/><path d="m88.947 13.943c0-2.3851 0.6914-4.1852 2.1203-5.3553 1.3828-1.2151 3.0421-1.8001 4.9319-1.8001s3.5031 0.58503 4.8854 1.8001c1.383 1.2151 2.075 2.9702 2.075 5.4003 0 2.3852-0.692 4.1853-2.075 5.3553-1.3823 1.2151-3.0417 1.8001-4.8854 1.8001-1.8898 0-3.5031-0.585-4.9319-1.8001-1.3828-1.215-2.1203-3.0151-2.1203-5.4003zm3.0421 0c0 1.6651 0.3227 2.8352 0.9219 3.6002 0.6453 0.7651 1.2906 1.2601 2.0742 1.4401 0.1843 0.045 0.3226 0.09 0.507 0.09 0.1383 0 0.3226 0.045 0.4609 0.045 0.1844 0 0.3227 0 0.507-0.045 0.1844 0 0.3227-0.045 0.5071-0.09 0.7375-0.18 1.4289-0.675 2.0281-1.4401 0.5992-0.765 0.9218-1.9801 0.9218-3.5552 0-1.6201-0.3226-2.7901-0.9218-3.5552-0.5992-0.765-1.2906-1.26-2.0281-1.44-0.1844-0.045-0.3688-0.09-0.5071-0.09-0.1843 0-0.3226-0.04501-0.507-0.04501-0.1843 0-0.3226 0-0.4609 0.04501-0.1383 0-0.3227 0.045-0.507 0.09-0.7375 0.18001-1.4289 0.67504-2.0742 1.44-0.5992 0.6751-0.9219 1.8901-0.9219 3.5102z"/><path d="m104.99 6.9228h8.02v2.3401h-5.116v3.4202h4.885v2.3851h-4.885v5.8953h-2.904v-14.041z"/><path d="m115.17 6.9228h8.021v2.3401h-5.117v3.4202h4.886v2.3851h-4.886v5.8953h-2.904v-14.041z"/><path d="m124.9 20.964v-14.041h2.904v14.041h-2.904z"/><path d="m140.6 7.2377v2.4301c-0.507-0.18001-1.014-0.31502-1.567-0.40503-0.553-0.09-1.199-0.135-1.844-0.135-1.521 0-2.673 0.45002-3.503 1.3951-0.83 0.9-1.245 2.0701-1.245 3.4652 0 1.35 0.369 2.4751 1.153 3.3752 0.783 0.9 1.889 1.395 3.318 1.395 0.507 0 1.014-0.045 1.614-0.09 0.599-0.09 1.198-0.225 1.843-0.495l0.185 2.3851c-0.092 0.045-0.231 0.09-0.369 0.135-0.184 0.045-0.369 0.09-0.599 0.135-0.369 0.09-0.83 0.1351-1.383 0.2251-0.553 0.045-1.106 0.09-1.705 0.09h-0.231-0.23c-1.66-0.09-3.181-0.7201-4.564-1.8001-1.382-1.1251-2.074-2.8802-2.074-5.2203 0-2.2951 0.692-4.0952 2.028-5.3553 1.337-1.2601 3.181-1.8901 5.439-1.8901 0.599 0 1.153 0 1.614 0.045 0.507 0.045 0.967 0.13501 1.474 0.22501 0.093 0.045 0.231 0.045 0.323 0.09001 0.092-0.04501 0.185 0 0.323 0z"/><path d="m142.9 6.9228h8.619v2.2051h-5.67v3.5102h5.117v2.1601h-5.117v3.9602h5.67v2.2051h-8.619v-14.041z"/></g></svg>
