<?xml version="1.0" encoding="UTF-8"?>
<svg enable-background="new 0 0 288 96.3" version="1.1" viewBox="0 0 288 96.3" xml:space="preserve" xmlns="http://www.w3.org/2000/svg">
<style type="text/css">
	.st0{fill:#DC205E;}
</style>

	<path d="m57.6 25.9v66.3h-12.6v-24.3c-3.1 3.6-7.5 6.1-13.8 6.1-12.9 0-22.7-10.6-22.7-24.7s9.8-24.7 22.7-24.7c6.4 0 11 2.6 14 6.4v-5.2h12.4zm-12 23.4c0-7.4-4.9-12.9-12.1-12.9-7.4 0-12.1 5.8-12.1 12.9 0 7.2 4.7 12.9 12.1 12.9 7.2 0.1 12.1-5.4 12.1-12.9z"/>
	<path d="m65.1 52.8v-26.9h12.6v25.8c0 7.5 4.1 10.6 9.6 10.6 5.4 0 9.6-3.1 9.6-10.6v-25.8h12.6v26.9c0 14.8-10.5 21.2-22.2 21.2s-22.2-6.3-22.2-21.2z"/>
	<path d="m165.7 25.9v46.9h-12.4v-5.2c-3.1 3.8-7.6 6.4-14 6.4-12.9 0-22.7-10.6-22.7-24.7s9.8-24.7 22.7-24.7c6.4 0 11 2.6 14 6.4v-5.2h12.4zm-11.9 23.4c0-7.4-4.9-12.9-12.1-12.9-7.4 0-12.1 5.8-12.1 12.9 0 7.2 4.7 12.9 12.1 12.9 7.2 0.1 12.1-5.4 12.1-12.9z"/>
	<path d="m221.9 3.1v69.8h-12.4v-5.2c-3.1 3.8-7.6 6.4-14 6.4-12.9 0-22.7-10.6-22.7-24.7s9.8-24.7 22.7-24.7c6.3 0 10.8 2.5 13.8 6.1v-27.7h12.6zm-12 46.2c0-7.4-4.9-12.9-12.1-12.9-7.4 0-12.1 5.8-12.1 12.9 0 7.2 4.7 12.9 12.1 12.9 7.2 0.1 12.1-5.4 12.1-12.9z"/>
	<path class="st0" d="m279.9 46c0 6.2-2.3 11.8-6.4 17.9l-18.8 28.3h-15.6l16.7-23.7c-1 0.1-2 0.2-3.3 0.2-13.6 0-23.4-9.8-23.4-22.5 0-13.2 10.9-23.1 25.4-23.1s25.4 9.8 25.4 22.9zm-13.4 0.1c0-6.7-5.1-11.3-12-11.3s-12 4.7-12 11.3 5.1 11.2 12 11.2c6.9 0.1 12-4.5 12-11.2z"/>

</svg>
